<svg width="21" height="20" viewBox="0 0 21 20" fill="none" xmlns="http://www.w3.org/2000/svg">
  <path d="M6.34571 0C3.03762 0 0.345703 2.59863 0.345703 5.79208V13.8119C0.345703 17.0053 3.03762 19.604 6.34571 19.604H14.6534C17.9615 19.604 20.6534 17.0053 20.6534 13.8119V5.79208C20.6534 2.59863 17.9615 0 14.6534 0H6.34571ZM6.34571 0.89109H14.6534C17.4626 0.89109 19.7303 3.08028 19.7303 5.79208V13.8119C19.7303 16.5237 17.4626 18.7129 14.6534 18.7129H6.34571C3.53656 18.7129 1.26878 16.5237 1.26878 13.8119V5.79208C1.26878 3.08028 3.53656 0.89109 6.34571 0.89109ZM16.038 3.56436C15.7932 3.56436 15.5584 3.65824 15.3853 3.82535C15.2122 3.99246 15.1149 4.21912 15.1149 4.45545C15.1149 4.69178 15.2122 4.91843 15.3853 5.08554C15.5584 5.25266 15.7932 5.34654 16.038 5.34654C16.2828 5.34654 16.5176 5.25266 16.6907 5.08554C16.8638 4.91843 16.9611 4.69178 16.9611 4.45545C16.9611 4.21912 16.8638 3.99246 16.6907 3.82535C16.5176 3.65824 16.2828 3.56436 16.038 3.56436ZM10.4996 4.90099C7.70111 4.90099 5.42263 7.10052 5.42263 9.80199C5.42263 12.5035 7.70111 14.703 10.4996 14.703C13.298 14.703 15.5765 12.5035 15.5765 9.80199C15.5765 7.10052 13.298 4.90099 10.4996 4.90099ZM10.4996 5.79208C12.7991 5.79208 14.6534 7.5821 14.6534 9.80199C14.6534 12.0219 12.7991 13.8119 10.4996 13.8119C8.19998 13.8119 6.34571 12.0219 6.34571 9.80199C6.34571 7.5821 8.19998 5.79208 10.4996 5.79208Z" fill="white"/>
  </svg>
  