<?xml version="1.0" encoding="utf-8"?>
<!-- Generator: Adobe Illustrator 28.3.0, SVG Export Plug-In . SVG Version: 6.00 Build 0)  -->
<svg version="1.1" id="Capa_1" xmlns="http://www.w3.org/2000/svg" xmlns:xlink="http://www.w3.org/1999/xlink" x="0px" y="0px"
	 viewBox="0 0 261.5 317.8" style="enable-background:new 0 0 261.5 317.8;" xml:space="preserve">
<style type="text/css">
	.st0{fill:#FFFFFF;}
</style>
<path class="st0" d="M167,58.5c0,0.7,0,1.2,0,1.6c0,54.1,0,108.3,0,162.4c0,1.1-0.6,1.7-1.7,1.7c-54.6,0-109.1,0-163.7,0
	c-1.1,0-1.6-0.5-1.6-1.6C0,160.2,0,97.9,0,35.5c0-0.6,0.2-1.4,0.5-1.9c5.8-7,11.5-14.1,18-20.4c4.9-4.7,10-8.9,16.5-11.4
	C43.8-1.5,52.2-0.3,60.4,4c6.7,3.6,12.5,8.5,17.6,14.1c8.2,9,16.2,18.2,24.4,27.2c5.8,6.4,12.1,12.3,19.7,16.7
	c6.9,3.9,14.3,5.8,22.2,5.3c7.7-0.5,14.6-3.3,21-7.6C165.7,59.4,166.2,59.1,167,58.5L167,58.5z M92.8,189c-0.7,0.2-1.2,0.4-1.8,0.6
	c-4.7,1.7-9.5,2.8-14.5,2.5c-4.9-0.2-8.2-2.8-9.1-7.6c-0.4-2.1-0.7-4.3-0.7-6.4c0-31.6,0-63.2-0.1-94.8c0-1,0.3-1.3,1.3-1.3
	c7.8,0,15.5,0,23.3,0c0.4,0,0.7,0,1.1,0c0.2-0.1,0.6-0.2,0.7-0.4c0.6-1.2,0-2.2-1.3-2.2c-7.9,0-15.8,0-23.6,0
	c-1.1,0-1.3-0.3-1.3-1.4c0-9,0-18.1,0-27.1c0-1.4-0.3-1.7-1.7-1.4c-0.5,0.1-1,0.5-1.4,1C55.4,60,47.2,69.3,39,78.7
	c-0.5,0.6-1,0.9-1.8,0.8c-3.6,0-7.2,0-10.8,0c-1,0-1.4,0.1-1.4,1.3c0,1.2,0.5,1.4,1.5,1.3c3.4-0.1,6.7,0,10.1,0
	c1.1,0,1.7,0.6,1.7,1.7c0,28.9,0,57.9,0,86.8c0,2.8,0.2,5.7,0.7,8.4c1.3,7.3,5.3,12.6,12.4,15.3c3.4,1.2,7,1.9,10.7,1.9
	c4.5,0,9.1-0.1,13.6-0.5c5.4-0.4,10.6-1.6,15.7-3.6C93.2,191.5,93.3,191.3,92.8,189L92.8,189z M22.5,248.2v16.6
	c0,2.9-0.9,5.3-2.6,6.9s-4.1,2.5-7.1,2.5s-5.3-0.8-7-2.5s-2.5-4-2.5-7v-16.5h1.8v16.6c0,2.5,0.7,4.4,2.1,5.8s3.3,2.1,5.8,2.1
	c2.4,0,4.3-0.7,5.7-2c1.3-1.4,2-3.2,2-5.6v-16.8L22.5,248.2L22.5,248.2z M48.2,273.8h-1.8L31.2,251H31c0.1,2.7,0.2,4.8,0.2,6.1v16.6
	h-1.7V248h1.8l15.2,22.8h0.1c-0.1-2.1-0.2-4.1-0.2-6v-16.7h1.7v25.7H48.2z M55.4,273.8v-25.7h1.8v25.7H55.4z M79.6,248.2h1.9
	L72,273.8h-1.6l-9.6-25.7h1.9l6.5,17.5c1,2.6,1.6,4.6,2,5.9c0.2-0.9,0.7-2.2,1.4-4.1L79.6,248.2z M99.3,273.8h-14v-25.7h14v1.7H87
	v9.7h11.6v1.6H87v11h12.2v1.7H99.3z M106.9,262.7v11.2h-1.8v-25.7h6.1c3.2,0,5.5,0.6,7.1,1.8c1.5,1.2,2.3,2.9,2.3,5.3
	c0,1.7-0.5,3.2-1.4,4.4s-2.3,2-4.1,2.5l7,11.7H120l-6.6-11.2L106.9,262.7L106.9,262.7z M106.9,261.1h4.9c2.2,0,3.8-0.5,5-1.4
	c1.2-1,1.8-2.4,1.8-4.3c0-2-0.6-3.4-1.8-4.3c-1.2-0.9-3.1-1.3-5.7-1.3h-4.2C106.9,249.8,106.9,261.1,106.9,261.1z M140.6,267.2
	c0,2.1-0.8,3.8-2.4,5.1c-1.6,1.3-3.7,1.9-6.3,1.9c-3.1,0-5.5-0.3-7.2-1v-1.8c1.8,0.8,4.2,1.2,7.1,1.2c2.1,0,3.8-0.5,5-1.4
	c1.2-1,1.9-2.2,1.9-3.8c0-1-0.2-1.8-0.6-2.4c-0.4-0.6-1.1-1.2-2-1.7s-2.3-1.1-4.1-1.7c-2.6-0.9-4.4-1.9-5.4-2.9s-1.5-2.4-1.5-4.2
	c0-1.9,0.8-3.5,2.3-4.7c1.5-1.2,3.4-1.8,5.8-1.8s4.7,0.5,6.8,1.4l-0.7,1.5c-2.1-0.9-4.2-1.3-6.1-1.3c-1.9,0-3.4,0.4-4.5,1.3
	s-1.7,2.1-1.7,3.6c0,0.9,0.2,1.7,0.5,2.3s0.9,1.2,1.7,1.6c0.8,0.5,2.1,1.1,4,1.7c2,0.7,3.5,1.4,4.5,2s1.7,1.4,2.2,2.2
	S140.6,266.1,140.6,267.2z M146,273.8v-25.7h1.8v25.7H146z M174.6,260.8c0,4.3-1.1,7.6-3.4,9.8s-5.6,3.3-10,3.3h-6.1v-25.7h6.9
	c4.1,0,7.2,1.1,9.3,3.2C173.5,253.5,174.6,256.7,174.6,260.8z M172.6,260.8c0-3.7-0.9-6.4-2.8-8.3c-1.9-1.9-4.6-2.8-8.2-2.8h-4.7
	v22.5h4.2C168.8,272.3,172.6,268.5,172.6,260.8z M192.8,264.8h-10.4l-3.6,9.1h-2l10.3-25.8h1.1l10.1,25.8h-2L192.8,264.8z
	 M183,263.2h9.2l-3.5-9.3c-0.3-0.7-0.6-1.7-1.1-3c-0.3,1.1-0.7,2.1-1,3.1L183,263.2z M221.5,260.8c0,4.3-1.1,7.6-3.4,9.8
	s-5.6,3.3-10,3.3H202v-25.7h6.9c4.1,0,7.2,1.1,9.3,3.2C220.5,253.5,221.5,256.7,221.5,260.8z M219.6,260.8c0-3.7-0.9-6.4-2.8-8.3
	c-1.9-1.9-4.6-2.8-8.2-2.8h-4.7v22.5h4.2C215.7,272.3,219.6,268.5,219.6,260.8z M241.4,273.8h-14v-25.7h14v1.7h-12.2v9.7h11.6v1.6
	h-11.6v11h12.2V273.8z M261.4,267.2c0,2.1-0.8,3.8-2.4,5.1c-1.6,1.3-3.7,1.9-6.3,1.9c-3.1,0-5.5-0.3-7.2-1v-1.8
	c1.8,0.8,4.2,1.2,7.1,1.2c2.1,0,3.8-0.5,5-1.4c1.2-1,1.9-2.2,1.9-3.8c0-1-0.2-1.8-0.6-2.4s-1.1-1.2-2-1.7s-2.3-1.1-4.1-1.7
	c-2.6-0.9-4.4-1.9-5.4-2.9s-1.5-2.4-1.5-4.2c0-1.9,0.8-3.5,2.3-4.7s3.4-1.8,5.8-1.8c2.4,0,4.7,0.5,6.8,1.4l-0.7,1.5
	c-2.1-0.9-4.2-1.3-6.1-1.3c-1.9,0-3.4,0.4-4.5,1.3s-1.7,2.1-1.7,3.6c0,0.9,0.2,1.7,0.5,2.3s0.9,1.2,1.7,1.6c0.8,0.5,2.1,1.1,4,1.7
	c2,0.7,3.5,1.4,4.5,2s1.7,1.4,2.2,2.2C261.2,265.1,261.4,266.1,261.4,267.2z M19.4,317h-18v-3.8l6.4-6.5c1.9-2,3.2-3.3,3.7-4.1
	c0.6-0.8,1-1.5,1.3-2.1s0.4-1.3,0.4-2c0-1-0.3-1.8-0.9-2.3c-0.6-0.5-1.3-0.8-2.3-0.8s-2,0.2-2.9,0.7s-1.9,1.1-2.9,1.9l-2.9-3.5
	c1.3-1.1,2.3-1.8,3.1-2.3c0.8-0.4,1.7-0.8,2.7-1s2.1-0.4,3.3-0.4c1.6,0,3,0.3,4.2,0.9s2.2,1.4,2.9,2.5s1,2.3,1,3.6
	c0,1.2-0.2,2.3-0.6,3.3s-1.1,2.1-1.9,3.2c-0.9,1.1-2.4,2.6-4.6,4.7l-3.3,3.1v0.2h11.2v4.7H19.4z M39.8,304.2c0,4.5-0.7,7.8-2.2,10
	s-3.7,3.2-6.8,3.2c-3,0-5.2-1.1-6.7-3.3s-2.3-5.5-2.3-9.8c0-4.5,0.7-7.9,2.2-10s3.7-3.2,6.8-3.2c3,0,5.2,1.1,6.7,3.4
	S39.8,299.8,39.8,304.2z M27.2,304.2c0,3.1,0.3,5.4,0.8,6.8s1.5,2,2.7,2c1.3,0,2.2-0.7,2.7-2.1c0.6-1.4,0.8-3.6,0.8-6.7
	s-0.3-5.4-0.9-6.8c-0.6-1.4-1.5-2.1-2.7-2.1c-1.3,0-2.2,0.7-2.7,2.1C27.5,298.7,27.2,301,27.2,304.2z M60.4,317H42.5v-3.8l6.4-6.5
	c1.9-2,3.2-3.3,3.7-4.1c0.6-0.8,1-1.5,1.3-2.1s0.4-1.3,0.4-2c0-1-0.3-1.8-0.9-2.3c-0.6-0.5-1.3-0.8-2.3-0.8s-2,0.2-2.9,0.7
	s-1.9,1.1-2.9,1.9l-2.9-3.5c1.3-1.1,2.3-1.8,3.1-2.3c0.8-0.4,1.7-0.8,2.7-1s2.1-0.4,3.3-0.4c1.6,0,3,0.3,4.2,0.9s2.2,1.4,2.9,2.5
	s1,2.3,1,3.6c0,1.2-0.2,2.3-0.6,3.3c-0.4,1-1.1,2.1-1.9,3.2c-0.9,1.1-2.4,2.6-4.6,4.7l-3.3,3.1v0.2h11.2V317z M81.6,311.6h-3.1v5.3
	h-5.3v-5.3h-11v-3.8l11.3-16.6h5v16.2h3.1V311.6z M73.2,307.4v-4.4c0-0.7,0-1.8,0.1-3.2s0.1-2.2,0.1-2.4h-0.1c-0.4,1-1,1.9-1.6,2.8
	l-4.7,7.1H73.2z M212.4,84c-0.4-0.3-0.7-1-0.6-1.4c0.5-3.4,1.1-6.8,1.7-10.1c0.3-1.7,0.6-3.3,0.9-5.2c-0.6,0.2-0.9,0.4-1.3,0.6
	c-3.9,2.1-7.9,4.1-11.8,6.2c-1.1,0.6-1.9,0.6-3,0c-3.9-2.1-7.8-4.2-11.8-6.2c-0.3-0.2-0.7-0.3-1.1-0.5c0,0.4,0,0.6,0,0.8
	c0.8,4.7,1.6,9.4,2.5,14.1c0.1,0.8,0.1,1.3-0.5,1.8c-2.1,2-4.2,4.1-6.3,6.1c-1.5,1.5-3,3-4.6,4.6c0.4,0.1,0.5,0.1,0.6,0.2
	c4.8,0.7,9.6,1.5,14.4,2.1c0.8,0.1,1.2,0.4,1.5,1.1c1.4,2.8,2.8,5.7,4.2,8.5c0.8,1.7,1.7,3.4,2.6,5.2c0.2-0.3,0.3-0.5,0.4-0.7
	c2.1-4.3,4.3-8.7,6.4-13c0.2-0.4,0.7-1,1.1-1.1c2.7-0.5,5.5-0.8,8.3-1.2c2.4-0.3,4.7-0.7,7.3-1.1c-0.5-0.5-0.7-0.8-1-1.1
	C218.9,90.5,215.6,87.3,212.4,84L212.4,84z M212.4,23c-0.4-0.4-0.8-1-0.7-1.5c0.6-3.9,1.3-7.8,2-11.6c0.2-1.1,0.4-2.3,0.6-3.7
	c-0.7,0.3-1.1,0.5-1.5,0.8c-4,2.1-8,4.2-12,6.3c-0.7,0.4-1.3,0.4-2,0c-2.8-1.5-5.7-3-8.6-4.5c-1.5-0.8-3.1-1.6-4.8-2.5
	c0,0.4-0.1,0.6-0.1,0.8c0.8,4.8,1.7,9.6,2.5,14.4c0.1,0.4-0.1,1-0.4,1.4c-1.6,1.7-3.3,3.2-4.9,4.9c-2,2-3.9,4.1-5.7,6.1
	c0,0,0.2,0.1,0.4,0.1c4.6,0.7,9.3,1.3,13.9,2c0.9,0.1,1.5,0.4,1.9,1.3c1.1,2.4,2.3,4.7,3.5,7.1c1,2.1,2.1,4.2,3.2,6.5
	c0.3-0.5,0.4-0.8,0.6-1.1c2.1-4.2,4.1-8.4,6.2-12.5c0.3-0.5,0.9-1.1,1.5-1.2c2.9-0.5,5.9-0.9,8.9-1.3c2-0.3,4.1-0.6,6.3-0.9
	c-0.3-0.3-0.4-0.5-0.5-0.6C219.3,29.8,215.8,26.5,212.4,23L212.4,23z M143.6,23.2c-0.7-0.7-0.9-1.3-0.7-2.2
	c0.9-4.9,1.7-9.7,2.6-14.8c-0.5,0.2-0.8,0.3-1,0.5c-4.2,2.2-8.4,4.4-12.5,6.6c-0.7,0.4-1.3,0.4-2,0c-4-2.1-8-4.3-12.1-6.4
	c-0.4-0.2-0.8-0.3-1.3-0.6c0.1,0.6,0.1,1,0.1,1.4c0.8,4.6,1.6,9.3,2.3,13.9c0.1,0.4-0.1,1-0.4,1.2c-1.6,1.6-3.2,3.1-4.8,4.7
	c-2,2.1-4,4.2-5.9,6.3c0,0,0.2,0.1,0.5,0.2c4.7,0.7,9.3,1.3,14,2c0.9,0.1,1.5,0.5,1.9,1.3c1.1,2.4,2.3,4.7,3.5,7.1
	c1,2.1,2.1,4.2,3.2,6.5c0.3-0.6,0.5-0.9,0.6-1.2c2.1-4.2,4.1-8.3,6.2-12.4c0.3-0.5,0.9-1,1.5-1.1c3.5-0.6,7-1,10.5-1.5
	c1.5-0.2,2.9-0.5,4.6-0.7c-0.4-0.5-0.6-0.7-0.8-0.9C150.2,29.6,147,26.4,143.6,23.2L143.6,23.2z"/>
</svg>
