<?xml version="1.0" encoding="utf-8"?>
<!-- Generator: Adobe Illustrator 26.2.1, SVG Export Plug-In . SVG Version: 6.00 Build 0)  -->
<svg version="1.1" xmlns="http://www.w3.org/2000/svg" xmlns:xlink="http://www.w3.org/1999/xlink" x="0px" y="0px"
	 viewBox="0 0 412.7 177.5" style="enable-background:new 0 0 412.7 177.5;" xml:space="preserve">
<style type="text/css">
	.st0{clip-path:url(#SVGID_00000070085518743582292920000016577785084232103583_);fill:#FFFFFF;}
	.st1{fill:#FFFFFF;}
	.st2{clip-path:url(#SVGID_00000141442675952758401360000000252007802874140593_);fill:#FFFFFF;}
	.st3{clip-path:url(#SVGID_00000182499801778269465090000006773490664125775492_);fill:#FFFFFF;}
	.st4{clip-path:url(#SVGID_00000034049923969952851170000001641548448922101683_);fill:#FFFFFF;}
	.st5{clip-path:url(#SVGID_00000011747999561789484990000006664824483994409918_);fill:#FFFFFF;}
	.st6{clip-path:url(#SVGID_00000058577934425280393170000013300072351778194836_);fill:#FFFFFF;}
	.st7{clip-path:url(#SVGID_00000090987718647282808620000009280108111792320906_);fill:#FFFFFF;}
	.st8{clip-path:url(#SVGID_00000074422829069255816850000013021123762263835016_);fill:#FFFFFF;}
	.st9{clip-path:url(#SVGID_00000049910015498699735530000005486083898547486641_);fill:#FFFFFF;}
	.st10{clip-path:url(#SVGID_00000060013449869917704580000016339459889775342767_);fill:#FFFFFF;}
</style>
<g id="Capa_2">
</g>
<g id="Capa_1">
	<g>
		<defs>
			<rect id="SVGID_1_" x="-32.1" y="-28.5" width="478.7" height="238.5"/>
		</defs>
		<clipPath id="SVGID_00000095315741461813378590000013987672651956615096_">
			<use xlink:href="#SVGID_1_"  style="overflow:visible;"/>
		</clipPath>
		<path style="clip-path:url(#SVGID_00000095315741461813378590000013987672651956615096_);fill:#FFFFFF;" d="M50.4,66.2
			c-5.9,0-10.8,4.8-10.8,10.8c0,5.9,4.8,10.8,10.8,10.8c5.9,0,10.8-4.8,10.8-10.8C61.2,71,56.3,66.2,50.4,66.2"/>
		<path style="clip-path:url(#SVGID_00000095315741461813378590000013987672651956615096_);fill:#FFFFFF;" d="M110.5,66.2
			c-5.9,0-10.8,4.8-10.8,10.8c0,5.9,4.8,10.8,10.8,10.8c5.9,0,10.8-4.8,10.8-10.8C121.3,71,116.5,66.2,110.5,66.2"/>
		<path style="clip-path:url(#SVGID_00000095315741461813378590000013987672651956615096_);fill:#FFFFFF;" d="M79.8,57.8
			c-7.2,0-13.1,5.8-13.1,13.1c0,7.2,5.8,13.1,13.1,13.1c7.2,0,13.1-5.8,13.1-13v0C92.9,63.6,87,57.8,79.8,57.8"/>
		<path style="clip-path:url(#SVGID_00000095315741461813378590000013987672651956615096_);fill:#FFFFFF;" d="M126.2,121.7
			c0.4-0.4,1-0.6,1.5-0.6C127.2,121,126.6,121.3,126.2,121.7"/>
		<path style="clip-path:url(#SVGID_00000095315741461813378590000013987672651956615096_);fill:#FFFFFF;" d="M126,121.8
			c0,0,0.1-0.1,0.1-0.1C126.1,121.7,126.1,121.8,126,121.8"/>
		<path style="clip-path:url(#SVGID_00000095315741461813378590000013987672651956615096_);fill:#FFFFFF;" d="M125.9,122
			c0-0.1,0.1-0.1,0.1-0.2C126,121.9,125.9,121.9,125.9,122"/>
		<path style="clip-path:url(#SVGID_00000095315741461813378590000013987672651956615096_);fill:#FFFFFF;" d="M126.2,121.7
			C126.2,121.7,126.2,121.7,126.2,121.7C126.2,121.7,126.2,121.7,126.2,121.7"/>
		<path style="clip-path:url(#SVGID_00000095315741461813378590000013987672651956615096_);fill:#FFFFFF;" d="M122.4,121.4
			c-1-1.9-2.1-2.5-3-2.5c-1.4,0-2.4,1.2-2.3,1.7c-0.2,1.9,1.2,3.5-2.6,18.5s-17.1,24-17.1,24s2.7-1.4,8.6-5.2
			c4.2-2.7,7.5-5.1,10.4-8c1.3-1.3,2.4-2.7,3.4-4.2c3.5-5.1,4.7-18.7,2.8-23.7C122.6,121.8,122.5,121.6,122.4,121.4"/>
		<path style="clip-path:url(#SVGID_00000095315741461813378590000013987672651956615096_);fill:#FFFFFF;" d="M130.5,123.1
			c-0.9-1.6-1.9-2.1-2.7-2.1h-0.1c-0.6,0-1.1,0.3-1.5,0.6c0,0,0,0,0,0c0,0-0.1,0.1-0.1,0.1c0,0.1-0.1,0.1-0.1,0.2
			c-0.1,0.2-0.2,0.4-0.2,0.6v0.2c1.3,5.9,0.3,16.4-2.5,22.4c0.2-0.2,0.5-0.4,0.7-0.6c3.2-2.7,5.8-5.1,7.5-6.7
			C132.3,132.3,132,125.7,130.5,123.1"/>
		<path style="clip-path:url(#SVGID_00000095315741461813378590000013987672651956615096_);fill:#FFFFFF;" d="M154.1,61l-17.7-15
			c-0.3-0.3-0.7-0.4-1.2-0.4c-1,0-1.8,0.8-1.8,1.8c0,0,0,0.1,0,0.1l1.3,23.2c0,0.7,0.5,1.3,1.2,1.6c0.2,0.1,0.4,0.1,0.6,0.1
			c0.5,0,1-0.2,1.3-0.5l3.4-3.4l3.1,6.1c0.2,0.4,0.6,0.8,1,0.9c0.2,0.1,0.4,0.1,0.6,0.1c0.3,0,0.6-0.1,0.8-0.2l3.9-1.9
			c0.4-0.2,0.8-0.6,0.9-1c0.2-0.5,0.1-1-0.1-1.4l-3.1-6.1l4.8-0.6c1-0.1,1.7-1,1.6-2C154.6,61.7,154.4,61.3,154.1,61"/>
		<path style="clip-path:url(#SVGID_00000095315741461813378590000013987672651956615096_);fill:#FFFFFF;" d="M141.4,123
			c-2,0-3.6-1.6-3.6-3.6c0-0.9,0.3-1.8,0.9-2.4c11.6-12.8,8.6-30.1,8.5-30.3c-0.4-2,0.9-3.9,2.9-4.2c2-0.4,3.9,0.9,4.2,2.9
			c0.2,0.8,3.8,20.9-10.3,36.5C143.5,122.5,142.5,123,141.4,123"/>
		<path style="clip-path:url(#SVGID_00000095315741461813378590000013987672651956615096_);fill:#FFFFFF;" d="M133.6,37.4
			c0,2.5-2,4.4-4.4,4.4s-4.4-2-4.4-4.4c0-2.5,2-4.4,4.4-4.4C131.6,33,133.6,35,133.6,37.4L133.6,37.4"/>
		<path style="clip-path:url(#SVGID_00000095315741461813378590000013987672651956615096_);fill:#FFFFFF;" d="M65.6,110.1
			c-1.1,0-2,0.9-2,1.9c0,0.6,0.3,1.2,0.8,1.6c0.9,0.6,2.1,0.4,2.7-0.4c0.2-0.3,0.4-0.7,0.4-1.1C67.6,110.9,66.7,110.1,65.6,110.1"/>
		<path style="clip-path:url(#SVGID_00000095315741461813378590000013987672651956615096_);fill:#FFFFFF;" d="M75.3,94.3
			c-1.1,0-2,0.9-2,1.9c0,0.6,0.3,1.2,0.8,1.6c0.7,0.5,1.6,0.5,2.3,0c0.9-0.6,1.1-1.8,0.4-2.7C76.6,94.6,76,94.3,75.3,94.3"/>
		<path style="clip-path:url(#SVGID_00000095315741461813378590000013987672651956615096_);fill:#FFFFFF;" d="M120.9,25.2
			c-11.2-7.3-24.3-11.2-37.7-11.1c-5.7,0-11.3,0.7-16.8,2C47.4,20.6,31,32.3,20.2,49c-11,17-14.8,37-10.9,56.4
			c0.1,0.6,0.2,1.2,0.3,1.8c5.9,30.6,47.4,53.1,52.6,55.7c3,1.5,9.4,4.8,17.1,4.8c5.3,0,11.1-1.5,16.8-6.3c0.5-0.4,1-0.8,1.4-1.3
			c2.2-2,4.2-4.2,6.1-6.6c1-1.3,1.9-2.6,2.7-3.8c1.3-2,2.5-4.2,3.6-6.4c0.1-0.1,0.1-0.3,0.2-0.4c1.1-2.3,2-4.8,2.7-7.3
			c0,0,0-0.1,0-0.1c0.1-0.2,0.1-0.4,0.2-0.7c0,0,0-0.1,0-0.1c0.1-0.5,0.3-1,0.4-1.4c0,0,0-0.1,0-0.1c0-0.2,0.1-0.4,0.1-0.6v-0.1
			c0.1-0.2,0.1-0.4,0.1-0.7v-0.1c0-0.2,0.1-0.4,0.1-0.6c0,0,0-0.1,0-0.1c0.1-0.4,0.1-0.8,0.2-1.1c0,0,0-0.1,0-0.1
			c0-0.2,0-0.3,0.1-0.4v-0.1c0-0.2,0-0.3,0.1-0.5c0,0,0,0,0,0c0-0.1,0-0.3,0-0.4v-0.1c0-0.1,0-0.2,0-0.4v-0.1c0-0.1,0-0.3,0-0.4
			v-0.1v-0.3v-0.1v-0.3c0-0.3,0-0.6,0-0.9c0.1-1.8,0.2-3.7-0.1-5.3c-0.1-0.4-0.2-0.7-0.3-1.1v0c0-0.1-0.1-0.2-0.1-0.3c0,0,0,0,0,0
			c0-0.1-0.1-0.2-0.1-0.2c0-0.1,0,0,0-0.1c0,0-0.1-0.1-0.1-0.2l0,0c0-0.1-0.1-0.1-0.1-0.2c-0.1-0.2-0.3-0.4-0.5-0.6l-0.1-0.1
			l-0.1-0.1l-0.1-0.1l-0.1-0.1l-0.1-0.1l-0.1-0.1l-0.2-0.1l-0.2-0.1l-0.2-0.1l-0.2-0.1l-0.2-0.1l-0.2,0c-0.1,0-0.2,0-0.3-0.1l-0.1,0
			c-0.1,0-0.3-0.1-0.4-0.1c-0.2,0-0.4,0-0.6,0c-4.4,0-5.1,6.3-5.3,7.7c0,0,0,0.1,0,0.2v0.1c0,0.1,0,0.2,0,0.2v0c0,0.1,0,0.2-0.1,0.3
			v0c-1.7,7.6-5.7,14.4-11.4,19.6c-1.8,1.6-3.9,3-6.2,3.9c-1.1,0.1-2.3,0.1-3.5,0.1c-0.7,0-1.4,0-2.1,0c-0.5,0-0.9,0-1.4-0.1
			c-1.6-0.1-3.1-0.2-4.7-0.4c1.6-0.3,3.1-0.7,4.7-1.2c5.1-1.7,10.8-3.9,12.4-7.4c0.1-0.1,0.1-0.3,0.2-0.4c0.9-2.7,0.9-6.6-4.9-7.1
			c-4.1,0.5-3.7,1.1-8.2,2.7c-2.9,0.6-5.8,0.9-8.7,0.9c-2.5,0-5-0.3-7.5-0.8c-2.2-0.5-4.4-1.1-6.5-1.9c-8-3.1-24.6-10.4-33.2-27.4
			c-2.4-4.8-4.1-10.1-4.9-15.4c-0.8-7.7-0.3-13.6,0.9-18.1c0.3-1,0.7-2.6,1-3.5c0-0.1,1-2.7,1-2.7c1.7-4.3,3.8-8.5,6.4-12.4
			c9.6-14.8,24.1-25.1,40.8-29.1c4.8-1.1,9.8-1.7,14.8-1.7c11.7,0,23.2,3.4,33,9.7c2.1,1.2,4.8,0.6,6-1.5
			C123.3,29.1,122.8,26.5,120.9,25.2"/>
		<path style="clip-path:url(#SVGID_00000095315741461813378590000013987672651956615096_);fill:#FFFFFF;" d="M56.8,103.6
			c0-3.9,1.1-7.6,3.3-10.8c-2-1.1-4.3-1.7-6.6-1.7h-6.1c-7.8,0-14.1,6.3-14.1,14.1v10.1c2.5,2.7,5.4,5.1,8.4,7.2
			c6,4.2,11.9,6.7,15.8,8.2c0.2,0.1,0.4,0.2,0.6,0.2c-0.8-2.1-1.2-4.3-1.1-6.6L56.8,103.6z"/>
		<path style="clip-path:url(#SVGID_00000095315741461813378590000013987672651956615096_);fill:#FFFFFF;" d="M113.6,91.1h-6.1
			c-2.5,0-4.9,0.7-7,1.9c2.1,3.2,3.1,6.9,3.1,10.6V118c1.4-2.6,3.6-4,6.2-4c0.3,0,0.6,0,0.9,0.1c0.2,0,0.4,0.1,0.6,0.1
			c0.1,0,0.1,0,0.2,0c0.1,0,0.3,0.1,0.4,0.1l0.2,0.1h0c0.1,0,0.2,0.1,0.3,0.1l0.2,0.1l0.3,0.1l0.2,0.1l0.3,0.1l0.2,0.1l0.2,0.2
			c0.1,0.1,0.2,0.1,0.2,0.2c0.1,0.1,0.1,0.1,0.2,0.1h0c0.1,0.1,0.1,0.1,0.2,0.2l0.1,0.1c0.3,0.3,0.6,0.6,0.8,1l0,0
			c0.1,0.1,0.1,0.2,0.2,0.3c1-0.8,2.2-1.3,3.5-1.3c1.2,0,3.4,0.4,5.2,3.2c0.9-0.7,2-1.1,3.1-1.1v-12.6
			C127.7,97.5,121.4,91.2,113.6,91.1"/>
		<path style="clip-path:url(#SVGID_00000095315741461813378590000013987672651956615096_);fill:#FFFFFF;" d="M84,86.3h-7.5
			c-9.6,0-17.3,7.8-17.3,17.3v20.8c0,2.6,0.6,5.2,1.7,7.5c0.9,0.2,1.7,0.5,2.6,0.6c0.3,0.1,0.7,0.1,1,0.2v-16.6
			c-2.3-0.6-3.6-3-2.9-5.2c0.6-2.3,3-3.6,5.2-2.9c2.3,0.6,3.6,3,2.9,5.2c-0.4,1.4-1.5,2.5-2.9,2.9v16.9c1.2,0.1,2.4,0.2,3.6,0.2
			c1.3,0,2.6-0.1,3.8-0.2v-32.7c-2.3-0.6-3.6-3-2.9-5.2c0.6-2.3,3-3.6,5.2-2.9c2.3,0.6,3.6,3,2.9,5.2c-0.4,1.4-1.5,2.5-2.9,2.9v32.4
			c0.7-0.1,1.3-0.2,1.9-0.3c1.4-0.5,2.3-0.9,3-1.3c0.8-0.4,1.7-0.7,2.5-1V108c-2.3-0.6-3.6-3-2.9-5.2c0.6-2.3,3-3.6,5.2-2.9
			c2.3,0.6,3.6,3,2.9,5.2c-0.4,1.4-1.5,2.5-2.9,2.9v21.7l0.7-0.1l0.3,0l0.3,0c3.2,0.2,5.1,1.4,6.1,2.6v-12.8c-0.1,0-0.2-0.1-0.3-0.1
			c-2.2-0.8-3.3-3.3-2.5-5.5c0.8-2.2,3.3-3.3,5.5-2.5c2.2,0.8,3.3,3.3,2.5,5.5c-0.5,1.3-1.5,2.2-2.8,2.6v17.4
			c0.4-0.4,0.8-0.8,1.1-1.2c2.2-2.5,3.6-5.6,4-8.9c0.1-0.8,0.2-1.6,0.2-2.4v-20.8C101.3,94.1,93.5,86.3,84,86.3"/>
		<path style="clip-path:url(#SVGID_00000095315741461813378590000013987672651956615096_);fill:#FFFFFF;" d="M96.7,115.4
			c0-1.1-1-1.9-2-1.9c-1,0-1.8,0.9-1.9,1.9c0,1.1,0.9,2,1.9,2c0.4,0,0.8-0.1,1.2-0.4C96.4,116.6,96.7,116,96.7,115.4"/>
		<path style="clip-path:url(#SVGID_00000095315741461813378590000013987672651956615096_);fill:#FFFFFF;" d="M85.1,101.9
			c-1.1,0-2,0.9-2,1.9c0,0.6,0.3,1.2,0.8,1.6c0.9,0.6,2.1,0.4,2.7-0.5c0.2-0.3,0.4-0.7,0.4-1.1C87,102.8,86.1,102,85.1,101.9"/>
		<path style="clip-path:url(#SVGID_00000095315741461813378590000013987672651956615096_);fill:#FFFFFF;" d="M178.2,66.3
			c0.5,0,1-0.1,1.5-0.4c0.3-0.3,0.5-0.6,0.6-1.1c0.1-0.7,0.2-1.3,0.1-2c0-1.2-0.1-2-0.4-2.5c-0.3-0.5-0.8-0.8-1.6-0.8h-0.6v6.7
			H178.2z M172.4,54.6h7.3c2.2,0,3.8,0.7,4.7,2.1c0.9,1.4,1.4,3.5,1.4,6.3c0,2.8-0.4,4.8-1.3,6.2c-0.8,1.4-2.3,2.1-4.5,2.1h-2.3v11
			h-5.5V54.6z"/>
		<path style="clip-path:url(#SVGID_00000095315741461813378590000013987672651956615096_);fill:#FFFFFF;" d="M195,77.6
			c0.2-0.4,0.3-0.9,0.3-1.3v-6.6c-0.7,0.2-1.4,0.7-1.9,1.2c-0.4,0.6-0.6,1.3-0.6,2.1v3c0,1.4,0.4,2.1,1.3,2.1
			C194.5,78.2,194.8,78,195,77.6z M188.1,80.7c-0.7-1.2-1-3-1-5.2c0-1.8,0.2-3.3,0.7-4.3c0.4-0.9,1.1-1.7,2-2.2
			c1.3-0.6,2.6-1.1,3.9-1.5l1.5-0.5v-2.4c0-0.5-0.1-1-0.4-1.4c-0.2-0.3-0.5-0.5-0.9-0.5c-0.3,0-0.6,0.2-0.8,0.4
			c-0.2,0.3-0.4,0.7-0.3,1.1v1.4h-5.5v-0.8c0-2.3,0.5-4,1.6-5c1.1-1,2.9-1.5,5.3-1.5c2,0,3.5,0.5,4.8,1.5c1.2,1,1.8,2.5,1.8,4.3v18
			h-5.6v-2.8c-0.2,0.9-0.7,1.7-1.3,2.3c-0.6,0.5-1.4,0.8-2.2,0.8C190,82.6,188.8,82,188.1,80.7"/>
		<path style="clip-path:url(#SVGID_00000095315741461813378590000013987672651956615096_);fill:#FFFFFF;" d="M204.7,80.6
			c-1.1-1.3-1.7-3.3-1.7-6v-7.3c-0.1-1.7,0.2-3.4,0.7-5c0.4-1.2,1.2-2.2,2.2-2.9c1-0.6,2.5-1,4.3-1c2,0,3.7,0.5,4.9,1.6
			c1.3,1.1,1.9,2.5,1.9,4.4V68h-5.7v-3.3c0-0.5-0.1-1-0.3-1.4c-0.2-0.3-0.6-0.5-1-0.5c-0.9,0-1.4,0.7-1.4,2v11.5
			c0,0.5,0.1,1,0.3,1.4c0.4,0.6,1.1,0.7,1.7,0.4c0.1-0.1,0.3-0.2,0.4-0.4c0.2-0.4,0.3-0.9,0.3-1.4l-0.1-3.9h5.7v4.1
			c0,1.9-0.6,3.5-1.9,4.6c-1.3,1.1-2.9,1.7-4.9,1.7C207.7,82.6,205.8,81.9,204.7,80.6"/>
		<path style="clip-path:url(#SVGID_00000095315741461813378590000013987672651956615096_);fill:#FFFFFF;" d="M220.8,81.6
			c-0.6-0.6-0.8-1.6-0.8-3V63.9h-1.6v-4.3h1.6v-5h5.5v5h1.6v4.3h-1.6v13.2c0,0.3,0,0.6,0.1,0.9c0.1,0.2,0.2,0.3,0.5,0.3
			c0.2,0,0.4,0,0.6,0c0.2,0,0.3,0,0.4,0v3.9c-0.3,0.1-0.8,0.2-1.4,0.3c-0.6,0.1-1.2,0.1-1.8,0.1C222.4,82.6,221.4,82.2,220.8,81.6"
			/>
		<path style="clip-path:url(#SVGID_00000095315741461813378590000013987672651956615096_);fill:#FFFFFF;" d="M236.7,77.7
			c0.2-0.4,0.4-0.9,0.3-1.3V64.8c0-1.4-0.4-2.1-1.3-2.1c-0.9,0-1.3,0.7-1.3,2.1v11.6c0,0.5,0.1,0.9,0.3,1.3c0.4,0.6,1.2,0.6,1.8,0.2
			C236.6,77.9,236.6,77.8,236.7,77.7L236.7,77.7z M228.6,75.2v-9.5c0-2.2,0.6-4,1.9-5.3c1.3-1.3,3-2,5.2-2c2.2,0,3.9,0.7,5.2,2
			c1.3,1.3,1.9,3.1,1.9,5.3v9.5c0,4.9-2.4,7.3-7.1,7.3C231,82.6,228.7,80.1,228.6,75.2"/>
		<path style="clip-path:url(#SVGID_00000095315741461813378590000013987672651956615096_);fill:#FFFFFF;" d="M259.1,77.4
			c1,0,1.5-0.5,1.5-1.5V61.6c0-0.5,0-0.9-0.1-1.4c-0.1-0.3-0.3-0.5-0.5-0.6c-0.4-0.1-0.8-0.2-1.2-0.2h-0.6v18H259.1z M252.5,54.6
			h7.6c2,0,3.5,0.5,4.5,1.6c1,1.1,1.5,2.7,1.5,4.9l0.1,13c0,2.7-0.5,4.8-1.4,6.2c-1,1.4-2.6,2.1-4.8,2.1h-7.5V54.6z"/>
	</g>
	<path class="st1" d="M268.3,82.3V58.7h5.6v23.6L268.3,82.3z M268.3,53.2h5.6v3.9h-5.6V53.2z"/>
	<g>
		<defs>
			<rect id="SVGID_00000145770758988029745240000003589432462269992102_" x="-32.1" y="-28.5" width="478.7" height="238.5"/>
		</defs>
		<clipPath id="SVGID_00000153663370730052902340000004469694143755917213_">
			<use xlink:href="#SVGID_00000145770758988029745240000003589432462269992102_"  style="overflow:visible;"/>
		</clipPath>
		<path style="clip-path:url(#SVGID_00000153663370730052902340000004469694143755917213_);fill:#FFFFFF;" d="M284.5,73.1v-8.4
			c0-0.5-0.1-0.9-0.4-1.4c-0.2-0.4-0.6-0.6-1-0.6c-0.4,0-0.8,0.2-1,0.5c-0.2,0.5-0.3,1-0.3,1.5v8.4c0,0.6,0.1,1.2,0.3,1.7
			c0.2,0.4,0.6,0.7,1,0.7C284,75.5,284.5,74.7,284.5,73.1L284.5,73.1z M278.6,85.4c-1-0.3-2-0.8-2.8-1.5l1.9-3.3
			c1.2,0.8,2.7,1.2,4.1,1.2c0.8,0.1,1.5-0.3,2-0.8c0.5-0.7,0.7-1.5,0.7-2.3v-1.3c-0.5,1.6-1.6,2.4-3.6,2.4c-1.6,0-2.8-0.5-3.6-1.6
			c-0.8-1.1-1.1-2.6-1.1-4.4v-8.9c0-2.1,0.3-3.7,1.1-4.8c0.7-1.1,1.9-1.7,3.7-1.7c0.9,0,1.7,0.2,2.4,0.8c0.6,0.6,1,1.3,1.2,2.1v-2.6
			h5.8v19.6c0,2.6-0.6,4.5-1.8,5.7c-1.2,1.2-3.2,1.7-5.9,1.7C281.2,85.8,279.9,85.7,278.6,85.4"/>
	</g>
	<path class="st1" d="M292.4,82.3V58.7h5.6v23.6L292.4,82.3z M292.4,53.2h5.6v3.9h-5.6V53.2z"/>
	<g>
		<defs>
			<rect id="SVGID_00000080178607852998695600000016670514482446446478_" x="-32.1" y="-28.5" width="478.7" height="238.5"/>
		</defs>
		<clipPath id="SVGID_00000019665368938003755470000003714563037709698478_">
			<use xlink:href="#SVGID_00000080178607852998695600000016670514482446446478_"  style="overflow:visible;"/>
		</clipPath>
		<path style="clip-path:url(#SVGID_00000019665368938003755470000003714563037709698478_);fill:#FFFFFF;" d="M302.1,81.6
			c-0.6-0.6-0.8-1.6-0.8-3V63.9h-1.6v-4.3h1.6v-5h5.5v5h1.6v4.3h-1.6v13.2c0,0.3,0,0.6,0.1,0.9c0.1,0.2,0.2,0.3,0.5,0.3
			c0.2,0,0.4,0,0.6,0c0.2,0,0.3,0,0.4,0v3.9c-0.3,0.1-0.8,0.2-1.4,0.3c-0.6,0.1-1.2,0.1-1.8,0.1C303.7,82.6,302.7,82.2,302.1,81.6"
			/>
		<path style="clip-path:url(#SVGID_00000019665368938003755470000003714563037709698478_);fill:#FFFFFF;" d="M317.6,77.6
			c0.2-0.4,0.3-0.9,0.3-1.3v-6.6c-0.7,0.2-1.4,0.7-1.9,1.2c-0.4,0.6-0.6,1.3-0.6,2.1v3c0,1.4,0.4,2.1,1.3,2.1
			C317,78.2,317.4,78,317.6,77.6z M310.7,80.7c-0.7-1.2-1-3-1-5.2c0-1.8,0.2-3.3,0.7-4.3c0.4-0.9,1.1-1.7,2-2.2
			c1.3-0.6,2.6-1.1,3.9-1.5l1.5-0.5v-2.4c0-0.5-0.1-1-0.4-1.4c-0.2-0.3-0.5-0.5-0.9-0.5c-0.3,0-0.6,0.2-0.8,0.4
			c-0.2,0.3-0.4,0.7-0.3,1.1v1.4H310v-0.8c0-2.3,0.5-4,1.6-5c1.1-1,2.9-1.5,5.3-1.5c2,0,3.5,0.5,4.8,1.5c1.2,1,1.8,2.5,1.8,4.3v18
			h-5.6v-2.8c-0.2,0.9-0.7,1.7-1.3,2.3c-0.6,0.5-1.4,0.8-2.2,0.8C312.6,82.6,311.3,82,310.7,80.7"/>
	</g>
	<rect x="325.7" y="54.4" class="st1" width="5.7" height="27.9"/>
	<g>
		<defs>
			<rect id="SVGID_00000075161344826731256240000003551655000046757263_" x="-32.1" y="-28.5" width="478.7" height="238.5"/>
		</defs>
		<clipPath id="SVGID_00000127734862049509616300000009719889679108655500_">
			<use xlink:href="#SVGID_00000075161344826731256240000003551655000046757263_"  style="overflow:visible;"/>
		</clipPath>
		<path style="clip-path:url(#SVGID_00000127734862049509616300000009719889679108655500_);fill:#FFFFFF;" d="M180.4,116.2
			c0.2-0.7,0.2-1.4,0.2-2.1v-10.1c0-0.6-0.1-1.3-0.2-1.9c-0.1-0.4-0.6-0.7-1-0.6c-0.9,0-1.3,0.8-1.3,2.5v10.4c0,0.6,0.1,1.3,0.3,1.9
			c0.2,0.4,0.6,0.7,1.1,0.7C179.9,116.9,180.3,116.6,180.4,116.2L180.4,116.2z M172.3,97.4h5.7v1.3c0.8-1,2.1-1.6,3.4-1.5
			c1.8,0,3.1,0.6,3.8,1.8c0.7,1.2,1.1,2.9,1.1,5.1v8.7c0,1.5-0.1,3-0.3,4.5c-0.2,1.1-0.7,2.1-1.4,2.8c-0.7,0.7-1.8,1.1-3.3,1.1
			c-1.4,0-2.5-0.4-3.2-1.2v5.7h-5.7L172.3,97.4z"/>
		<path style="clip-path:url(#SVGID_00000127734862049509616300000009719889679108655500_);fill:#FFFFFF;" d="M195.9,116.4
			c0.2-0.4,0.3-0.9,0.3-1.3v-6.6c-0.7,0.2-1.4,0.7-1.9,1.2c-0.4,0.6-0.6,1.3-0.6,2.1v3c0,1.4,0.4,2.1,1.3,2.1
			C195.4,116.9,195.7,116.7,195.9,116.4L195.9,116.4z M189,119.5c-0.7-1.2-1-3-1-5.2c0-1.8,0.2-3.3,0.7-4.3c0.4-0.9,1.1-1.7,2-2.2
			c1.3-0.6,2.6-1.1,3.9-1.5l1.5-0.5v-2.4c0-0.5-0.1-1-0.4-1.4c-0.2-0.3-0.5-0.5-0.9-0.5c-0.3,0-0.6,0.2-0.8,0.4
			c-0.2,0.3-0.4,0.7-0.3,1.1v1.4h-5.4v-0.8c0-2.3,0.5-4,1.6-5c1.1-1,2.9-1.5,5.3-1.5c2,0,3.6,0.5,4.8,1.5c1.2,1,1.8,2.5,1.8,4.3v18
			h-5.6v-2.8c-0.2,0.9-0.7,1.7-1.3,2.3c-0.6,0.5-1.4,0.8-2.2,0.8C190.9,121.3,189.7,120.7,189,119.5"/>
		<path style="clip-path:url(#SVGID_00000127734862049509616300000009719889679108655500_);fill:#FFFFFF;" d="M204,97.4h5.6v2.6
			c0.2-0.9,0.8-1.6,1.5-2.1c0.8-0.5,1.7-0.8,2.6-0.8v4.7c-0.9,0-1.8,0.1-2.6,0.3c-1,0.2-1.4,0.5-1.4,0.8V121H204V97.4z"/>
		<path style="clip-path:url(#SVGID_00000127734862049509616300000009719889679108655500_);fill:#FFFFFF;" d="M222.6,116.4
			c0.2-0.4,0.3-0.9,0.3-1.3v-6.6c-0.7,0.2-1.4,0.7-1.9,1.2c-0.4,0.6-0.6,1.3-0.6,2.1v3c0,1.4,0.4,2.1,1.3,2.1
			C222.1,116.9,222.4,116.7,222.6,116.4 M215.7,119.5c-0.7-1.2-1-3-1-5.2c0-1.8,0.2-3.3,0.7-4.3c0.4-0.9,1.1-1.7,2-2.2
			c1.3-0.6,2.6-1.1,3.9-1.5l1.6-0.5v-2.4c0-0.5-0.1-1-0.4-1.4c-0.2-0.3-0.5-0.5-0.9-0.5c-0.3,0-0.6,0.2-0.8,0.4
			c-0.2,0.3-0.4,0.7-0.3,1.1v1.4H215v-0.8c0-2.3,0.5-4,1.6-5c1.1-1,2.9-1.5,5.3-1.5c2,0,3.5,0.5,4.8,1.5c1.2,1,1.8,2.5,1.8,4.3v18
			H223v-2.8c-0.2,0.9-0.7,1.7-1.3,2.3c-0.6,0.5-1.4,0.8-2.2,0.8C217.6,121.3,216.4,120.7,215.7,119.5"/>
	</g>
	<rect x="238.3" y="93.1" class="st1" width="5.7" height="27.9"/>
	<g>
		<defs>
			<rect id="SVGID_00000088114120629318210620000011220586906758622639_" x="-32.1" y="-28.5" width="478.7" height="238.5"/>
		</defs>
		<clipPath id="SVGID_00000073712161362611262090000003707413170828643508_">
			<use xlink:href="#SVGID_00000088114120629318210620000011220586906758622639_"  style="overflow:visible;"/>
		</clipPath>
		<path style="clip-path:url(#SVGID_00000073712161362611262090000003707413170828643508_);fill:#FFFFFF;" d="M253.7,116.4
			c0.2-0.4,0.3-0.9,0.3-1.3v-6.6c-0.7,0.2-1.4,0.7-1.9,1.2c-0.4,0.6-0.6,1.3-0.6,2.1v3c0,1.4,0.4,2.1,1.3,2.1
			C253.2,116.9,253.6,116.7,253.7,116.4z M246.8,119.5c-0.7-1.2-1-3-1-5.2c0-1.8,0.2-3.3,0.7-4.3c0.4-0.9,1.1-1.7,2-2.2
			c1.3-0.6,2.6-1.1,3.9-1.5l1.5-0.5v-2.4c0-0.5-0.1-1-0.4-1.4c-0.2-0.3-0.5-0.5-0.9-0.5c-0.3,0-0.6,0.2-0.8,0.4
			c-0.2,0.3-0.4,0.7-0.3,1.1v1.4h-5.5v-0.8c0-2.3,0.5-4,1.6-5c1.1-1,2.9-1.5,5.3-1.5c2,0,3.5,0.5,4.8,1.5c1.2,1,1.8,2.5,1.8,4.3v18
			h-5.6v-2.8c-0.2,0.9-0.7,1.7-1.3,2.3c-0.6,0.5-1.4,0.8-2.2,0.8C248.8,121.3,247.5,120.7,246.8,119.5"/>
		<path style="clip-path:url(#SVGID_00000073712161362611262090000003707413170828643508_);fill:#FFFFFF;" d="M275.3,105.1
			c0.5,0,1-0.1,1.5-0.4c0.3-0.3,0.5-0.6,0.6-1.1c0.1-0.7,0.2-1.3,0.1-2c0-1.2-0.1-2-0.4-2.5c-0.3-0.5-0.8-0.8-1.6-0.8H275v6.7H275.3
			z M269.5,93.3h7.3c2.2,0,3.8,0.7,4.7,2.1c0.9,1.4,1.4,3.5,1.4,6.3c0,2.8-0.4,4.8-1.3,6.2c-0.8,1.4-2.3,2.1-4.5,2.1H275v11h-5.4
			V93.3z"/>
		<path style="clip-path:url(#SVGID_00000073712161362611262090000003707413170828643508_);fill:#FFFFFF;" d="M284.7,97.4h5.6v2.6
			c0.2-0.9,0.8-1.6,1.5-2.1c0.8-0.5,1.7-0.8,2.6-0.8v4.7c-0.9,0-1.8,0.1-2.6,0.3c-1,0.2-1.4,0.5-1.4,0.8V121h-5.6V97.4z"/>
		<path style="clip-path:url(#SVGID_00000073712161362611262090000003707413170828643508_);fill:#FFFFFF;" d="M303.6,116.5
			c0.2-0.4,0.3-0.9,0.3-1.3v-11.6c0-1.4-0.4-2.1-1.3-2.1c-0.9,0-1.3,0.7-1.3,2.1v11.6c0,0.5,0.1,0.9,0.3,1.3
			c0.4,0.6,1.2,0.6,1.8,0.2C303.5,116.6,303.6,116.5,303.6,116.5 M295.6,114v-9.5c0-2.2,0.6-4,1.9-5.3c1.3-1.3,3-2,5.2-2
			c2.2,0,3.9,0.7,5.2,2c1.3,1.3,1.9,3.1,1.9,5.3v9.5c0,4.9-2.4,7.3-7.1,7.3C297.9,121.3,295.6,118.9,295.6,114"/>
		<path style="clip-path:url(#SVGID_00000073712161362611262090000003707413170828643508_);fill:#FFFFFF;" d="M313.6,120.3
			c-0.6-0.6-0.8-1.6-0.8-3v-14.7h-1.6v-4.3h1.6v-5h5.5v5h1.6v4.3h-1.6v13.3c0,0.3,0,0.6,0.1,0.9c0.1,0.2,0.2,0.3,0.5,0.3
			c0.2,0,0.4,0,0.6,0c0.2,0,0.3,0,0.4,0v3.9c-0.3,0.1-0.8,0.2-1.4,0.3c-0.6,0.1-1.2,0.1-1.8,0.1C315.2,121.3,314.2,121,313.6,120.3"
			/>
		<path style="clip-path:url(#SVGID_00000073712161362611262090000003707413170828643508_);fill:#FFFFFF;" d="M329.8,106.9v-3
			c0-1.7-0.4-2.6-1.3-2.5c-0.9,0-1.4,0.8-1.4,2.5v3H329.8z M323,119.3c-1.1-1.3-1.6-3.3-1.6-6v-9.5c0-2.2,0.6-3.8,1.9-5
			c1.2-1.1,3-1.7,5.2-1.7c4.5,0,6.8,2.2,6.8,6.7v1.7c0,1.7,0,3.1-0.1,4.2h-8.2v4.6c0,0.6,0.1,1.3,0.3,1.9c0.3,0.6,1.1,0.9,1.7,0.6
			c0.1-0.1,0.2-0.2,0.3-0.3c0.2-0.3,0.3-0.6,0.3-0.9c0-0.3,0-0.8,0-1.5v-2.3h5.6v1.4c0,2.8-0.5,4.8-1.6,6.1c-1.1,1.3-2.9,2-5.5,2
			C325.8,121.3,324.1,120.6,323,119.3"/>
		<path style="clip-path:url(#SVGID_00000073712161362611262090000003707413170828643508_);fill:#FFFFFF;" d="M338.9,119.3
			c-1.1-1.3-1.7-3.3-1.7-6V106c-0.1-1.7,0.2-3.4,0.7-5c0.4-1.2,1.2-2.2,2.2-2.9c1-0.6,2.5-1,4.3-1c2,0,3.7,0.5,4.9,1.6
			c1.3,1.1,1.9,2.5,1.9,4.4v3.6h-5.7v-3.3c0-0.5-0.1-1-0.3-1.4c-0.2-0.3-0.6-0.5-1-0.5c-0.9,0-1.4,0.7-1.4,2v11.5
			c0,0.5,0.1,1,0.3,1.4c0.2,0.4,0.6,0.6,1,0.6c0.4,0,0.8-0.2,1-0.5c0.2-0.4,0.3-0.9,0.3-1.4l0-4h5.7v4.1c0,1.9-0.6,3.5-1.9,4.6
			c-1.3,1.1-2.9,1.7-4.9,1.7C341.9,121.3,340.1,120.6,338.9,119.3"/>
		<path style="clip-path:url(#SVGID_00000073712161362611262090000003707413170828643508_);fill:#FFFFFF;" d="M354.8,119.3
			c-1.1-1.3-1.7-3.3-1.7-6V106c-0.1-1.7,0.2-3.4,0.7-5c0.4-1.2,1.2-2.2,2.2-2.9c1-0.6,2.5-1,4.3-1c2,0,3.7,0.5,4.9,1.6
			c1.3,1.1,1.9,2.5,1.9,4.4v3.6h-5.7v-3.3c0-0.5-0.1-1-0.3-1.4c-0.2-0.3-0.6-0.5-1-0.5c-0.9,0-1.4,0.7-1.4,2v11.5
			c0,0.5,0.1,1,0.3,1.4c0.4,0.6,1.1,0.7,1.7,0.4c0.1-0.1,0.3-0.2,0.4-0.4c0.2-0.4,0.3-0.9,0.3-1.4l0-4h5.7v4.1
			c0,1.9-0.6,3.5-1.9,4.6c-1.3,1.1-2.9,1.7-4.9,1.7C357.8,121.3,355.9,120.6,354.8,119.3"/>
	</g>
	<path class="st1" d="M369.1,121V97.4h5.6V121L369.1,121z M369.1,91.9h5.6v3.9h-5.6V91.9z"/>
	<g>
		<defs>
			<rect id="SVGID_00000034061490522747344850000003628452249344556680_" x="-32.1" y="-28.5" width="478.7" height="238.5"/>
		</defs>
		<clipPath id="SVGID_00000016073383607873970310000002535401353018719129_">
			<use xlink:href="#SVGID_00000034061490522747344850000003628452249344556680_"  style="overflow:visible;"/>
		</clipPath>
		<path style="clip-path:url(#SVGID_00000016073383607873970310000002535401353018719129_);fill:#FFFFFF;" d="M384.8,116.5
			c0.2-0.4,0.3-0.9,0.3-1.3v-11.6c0-1.4-0.4-2.1-1.3-2.1c-0.9,0-1.3,0.7-1.3,2.1v11.6c0,0.5,0.1,0.9,0.3,1.3
			c0.4,0.6,1.2,0.6,1.8,0.2C384.7,116.6,384.8,116.5,384.8,116.5 M380,96.3v-3.5l7.5-3.4v5.5L380,96.3z M376.7,114v-9.5
			c0-2.2,0.6-4,1.9-5.3c1.3-1.3,3-2,5.2-2c2.2,0,3.9,0.7,5.2,2c1.3,1.3,1.9,3.1,1.9,5.3v9.5c0,4.9-2.4,7.3-7.1,7.3
			C379.1,121.3,376.7,118.9,376.7,114"/>
		<path style="clip-path:url(#SVGID_00000016073383607873970310000002535401353018719129_);fill:#FFFFFF;" d="M393,97.4h5.6v3
			c0.2-0.9,0.6-1.7,1.2-2.4c0.6-0.6,1.5-0.9,2.3-0.9c1.6,0,2.8,0.5,3.5,1.5c0.8,1,1.1,2.4,1.1,4.2V121h-5.6v-17.7
			c0-0.5-0.1-0.9-0.3-1.3c-0.2-0.4-0.6-0.6-1-0.5c-0.5,0-1,0.3-1.1,0.8c-0.2,0.7-0.3,1.4-0.3,2.1V121H393V97.4z"/>
		<path style="clip-path:url(#SVGID_00000016073383607873970310000002535401353018719129_);fill:#FFFFFF;" d="M180.2,154.8
			c0.2-0.7,0.3-1.5,0.3-2.2v-9.9c0-0.6-0.1-1.2-0.3-1.7c-0.1-0.4-0.6-0.7-1-0.7c-0.5-0.1-0.9,0.2-1.1,0.7c-0.2,0.6-0.3,1.2-0.3,1.8
			v9.9c0,2,0.5,3,1.4,3C179.6,155.6,180.1,155.3,180.2,154.8z M173.9,159c-0.7-0.7-1.2-1.6-1.4-2.6c-0.3-1.4-0.4-2.8-0.3-4.2
			l0.1-10.7c0-1.7,0.4-3.1,1.3-4.1c0.9-1.1,2.2-1.7,3.6-1.6c1.5,0,2.7,0.5,3.4,1.5v-5.5h5.6v27.9h-5.7v-2.5
			c-0.2,0.8-0.7,1.5-1.3,2.1c-0.6,0.5-1.4,0.7-2.2,0.7C175.6,160,174.6,159.7,173.9,159"/>
		<path style="clip-path:url(#SVGID_00000016073383607873970310000002535401353018719129_);fill:#FFFFFF;" d="M196.5,145.7v-3
			c0-1.7-0.4-2.6-1.3-2.5c-0.9,0-1.4,0.8-1.4,2.5v3H196.5z M189.8,158c-1-1.3-1.6-3.3-1.6-6v-9.5c0-2.2,0.6-3.8,1.9-5
			c1.2-1.1,3-1.7,5.2-1.7c4.5,0,6.8,2.2,6.8,6.7v1.7c0,1.7,0,3.1-0.1,4.2h-8.2v4.6c0,0.6,0.1,1.3,0.3,1.9c0.3,0.6,1.1,0.9,1.7,0.6
			c0.1-0.1,0.2-0.2,0.3-0.3c0.2-0.3,0.3-0.6,0.3-0.9c0-0.3,0-0.8,0-1.5v-2.3h5.6v1.4c0,2.8-0.5,4.8-1.6,6.1c-1.1,1.3-2.9,2-5.5,2
			C192.6,160,190.8,159.4,189.8,158"/>
	</g>
	<rect x="211.7" y="131.9" class="st1" width="5.7" height="27.9"/>
	<g>
		<defs>
			<rect id="SVGID_00000005237843787260333440000004707825377336121744_" x="-32.1" y="-28.5" width="478.7" height="238.5"/>
		</defs>
		<clipPath id="SVGID_00000101815016077912666250000009972933689593056927_">
			<use xlink:href="#SVGID_00000005237843787260333440000004707825377336121744_"  style="overflow:visible;"/>
		</clipPath>
		<path style="clip-path:url(#SVGID_00000101815016077912666250000009972933689593056927_);fill:#FFFFFF;" d="M227.1,155.1
			c0.2-0.4,0.3-0.9,0.3-1.3v-6.6c-0.7,0.2-1.4,0.7-1.9,1.2c-0.4,0.6-0.6,1.3-0.6,2.1v3c0,1.4,0.4,2.1,1.3,2.1
			C226.6,155.7,227,155.5,227.1,155.1 M220.2,158.2c-0.7-1.2-1-3-1-5.2c0-1.8,0.2-3.3,0.7-4.3c0.4-0.9,1.1-1.7,2-2.2
			c1.3-0.6,2.6-1.1,3.9-1.5l1.6-0.5v-2.4c0-0.5-0.1-1-0.4-1.4c-0.2-0.3-0.5-0.5-0.9-0.5c-0.3,0-0.6,0.2-0.8,0.4
			c-0.2,0.3-0.4,0.7-0.3,1.1v1.4h-5.5v-0.8c0-2.3,0.5-4,1.6-5c1.1-1,2.9-1.5,5.3-1.5c2,0,3.5,0.5,4.8,1.5c1.2,1,1.8,2.5,1.8,4.3v18
			h-5.6v-2.8c-0.2,0.9-0.7,1.7-1.3,2.3c-0.6,0.5-1.4,0.8-2.2,0.8C222.2,160,220.9,159.4,220.2,158.2"/>
		<path style="clip-path:url(#SVGID_00000101815016077912666250000009972933689593056927_);fill:#FFFFFF;" d="M234.8,152.9l0-1.9
			h5.6l0,2.8c0,0.4,0.1,0.9,0.3,1.3c0.3,0.3,0.7,0.5,1.1,0.4c0.8,0,1.1-0.6,1.1-1.8c0-0.7-0.1-1.5-0.5-2.1c-0.5-0.6-1-1.2-1.7-1.6
			l-3-2.3c-0.9-0.7-1.7-1.5-2.2-2.5c-0.5-0.9-0.7-2.1-0.7-3.6c0-1.1,0.3-2.2,1-3.1c0.7-0.9,1.5-1.5,2.5-1.9c1.1-0.4,2.3-0.7,3.5-0.6
			c4.6,0,6.9,2.3,6.9,6.8v0.5h-5.8v-0.9c0-0.5-0.1-1-0.3-1.4c-0.1-0.4-0.5-0.6-0.9-0.6c-0.3,0-0.7,0.1-0.9,0.3
			c-0.2,0.3-0.3,0.6-0.3,0.9c0,0.8,0.3,1.6,1,2l3.5,2.6c1.1,0.8,2.1,1.8,2.9,3c0.7,1.3,1,2.7,1,4.1c0,2.2-0.6,3.9-1.9,5.1
			c-1.2,1.2-3,1.8-5.2,1.8C237.1,160,234.8,157.7,234.8,152.9"/>
		<path style="clip-path:url(#SVGID_00000101815016077912666250000009972933689593056927_);fill:#FFFFFF;" d="M264,143.8
			c0.5,0,1-0.1,1.5-0.4c0.3-0.3,0.5-0.6,0.6-1.1c0.1-0.7,0.2-1.3,0.1-2c0-1.2-0.1-2-0.4-2.5c-0.3-0.5-0.8-0.8-1.5-0.8h-0.6v6.7H264z
			 M258.3,132h7.3c2.2,0,3.8,0.7,4.7,2.1c0.9,1.4,1.4,3.5,1.4,6.3c0,2.8-0.4,4.8-1.3,6.2c-0.8,1.4-2.3,2.1-4.5,2.1h-2.3v11h-5.5V132
			z"/>
		<path style="clip-path:url(#SVGID_00000101815016077912666250000009972933689593056927_);fill:#FFFFFF;" d="M281.5,145.7v-3
			c0-1.7-0.4-2.6-1.3-2.5c-0.9,0-1.4,0.8-1.4,2.5v3H281.5z M274.8,158c-1.1-1.3-1.6-3.3-1.6-6v-9.5c0-2.2,0.6-3.8,1.9-5
			c1.2-1.1,3-1.7,5.2-1.7c4.5,0,6.8,2.2,6.8,6.7v1.7c0,1.7,0,3.1-0.1,4.2h-8.2v4.6c0,0.6,0.1,1.3,0.3,1.9c0.3,0.6,1.1,0.9,1.7,0.6
			c0.1-0.1,0.2-0.2,0.3-0.3c0.2-0.3,0.3-0.6,0.3-0.9c0-0.3,0-0.8,0-1.5v-2.3h5.6v1.4c0,2.8-0.5,4.8-1.6,6.1c-1.1,1.3-2.9,2-5.5,2
			C277.6,160,275.8,159.4,274.8,158"/>
		<path style="clip-path:url(#SVGID_00000101815016077912666250000009972933689593056927_);fill:#FFFFFF;" d="M289.2,136.1h5.6v2.6
			c0.2-0.9,0.8-1.6,1.5-2.1c0.8-0.5,1.7-0.8,2.6-0.8v4.7c-0.9,0-1.8,0.1-2.6,0.3c-1,0.2-1.4,0.5-1.4,0.8v18.1h-5.6V136.1z"/>
		<path style="clip-path:url(#SVGID_00000101815016077912666250000009972933689593056927_);fill:#FFFFFF;" d="M299.7,152.9l0-1.9
			h5.6l0,2.8c0,0.4,0.1,0.9,0.3,1.3c0.3,0.3,0.7,0.5,1.1,0.4c0.8,0,1.1-0.6,1.1-1.8c0-0.7-0.1-1.5-0.5-2.1c-0.5-0.6-1-1.2-1.7-1.6
			l-3-2.3c-0.9-0.7-1.7-1.5-2.2-2.5c-0.5-0.9-0.7-2.1-0.7-3.6c0-1.1,0.3-2.2,1-3.1c0.7-0.9,1.5-1.5,2.5-1.9c1.1-0.4,2.3-0.7,3.5-0.6
			c4.6,0,6.9,2.3,6.9,6.8v0.5h-5.9v-0.9c0-0.5-0.1-1-0.3-1.4c-0.1-0.4-0.5-0.6-0.9-0.6c-0.3,0-0.7,0.1-0.9,0.3
			c-0.2,0.3-0.3,0.6-0.3,0.9c0,0.8,0.3,1.6,1,2l3.5,2.6c1.1,0.8,2.1,1.8,2.9,3c0.7,1.3,1.1,2.7,1,4.1c0,2.2-0.6,3.9-1.9,5.1
			c-1.2,1.2-3,1.8-5.2,1.8C302.1,160,299.7,157.7,299.7,152.9"/>
		<path style="clip-path:url(#SVGID_00000101815016077912666250000009972933689593056927_);fill:#FFFFFF;" d="M323.5,155.2
			c0.2-0.4,0.3-0.9,0.3-1.3v-11.6c0-1.4-0.4-2.1-1.3-2.1c-0.9,0-1.3,0.7-1.3,2.1v11.6c0,0.5,0.1,0.9,0.3,1.3
			c0.4,0.6,1.2,0.6,1.8,0.2C323.3,155.3,323.4,155.3,323.5,155.2 M315.4,152.7v-9.5c0-2.2,0.6-4,1.9-5.3c1.3-1.3,3-2,5.2-2
			c2.2,0,3.9,0.7,5.2,2c1.3,1.3,1.9,3.1,1.9,5.3v9.5c0,4.9-2.4,7.3-7.1,7.3C317.8,160,315.4,157.6,315.4,152.7"/>
		<path style="clip-path:url(#SVGID_00000101815016077912666250000009972933689593056927_);fill:#FFFFFF;" d="M331.6,136.1h5.6v3
			c0.2-0.9,0.6-1.7,1.2-2.4c0.6-0.6,1.5-0.9,2.3-0.9c1.6,0,2.8,0.5,3.5,1.5c0.8,1,1.1,2.4,1.1,4.2v18.2H340v-17.6
			c0-0.5-0.1-0.9-0.3-1.3c-0.2-0.4-0.6-0.6-1-0.6c-0.5,0-1,0.3-1.1,0.8c-0.2,0.7-0.3,1.4-0.3,2.1v16.6h-5.6V136.1z"/>
		<path style="clip-path:url(#SVGID_00000101815016077912666250000009972933689593056927_);fill:#FFFFFF;" d="M355.2,155.1
			c0.2-0.4,0.3-0.9,0.3-1.3v-6.6c-0.7,0.2-1.4,0.7-1.9,1.2c-0.4,0.6-0.6,1.3-0.6,2.1v3c0,1.4,0.4,2.1,1.3,2.1
			C354.6,155.7,355,155.5,355.2,155.1 M348.3,158.2c-0.7-1.2-1-3-1-5.2c0-1.8,0.2-3.3,0.7-4.3c0.4-0.9,1.1-1.7,2-2.2
			c1.3-0.6,2.6-1.1,3.9-1.5l1.5-0.5v-2.4c0-0.5-0.1-1-0.4-1.4c-0.2-0.3-0.5-0.5-0.9-0.5c-0.3,0-0.6,0.2-0.8,0.4
			c-0.2,0.3-0.4,0.7-0.3,1.1v1.4h-5.5v-0.8c0-2.3,0.5-4,1.6-5c1.1-1,2.9-1.5,5.3-1.5c2,0,3.6,0.5,4.8,1.5c1.2,1,1.8,2.5,1.8,4.3v18
			h-5.6V157c-0.2,0.9-0.7,1.7-1.3,2.3c-0.6,0.5-1.4,0.8-2.2,0.8C350.2,160,348.9,159.4,348.3,158.2"/>
		<path style="clip-path:url(#SVGID_00000101815016077912666250000009972933689593056927_);fill:#FFFFFF;" d="M362.8,152.9l0-1.9
			h5.7l0,2.8c0,0.4,0.1,0.9,0.3,1.3c0.3,0.3,0.7,0.5,1.1,0.4c0.8,0,1.1-0.6,1.1-1.8c0-0.7-0.1-1.5-0.5-2.1c-0.5-0.6-1-1.2-1.7-1.6
			l-3-2.3c-0.9-0.7-1.7-1.5-2.2-2.5c-0.5-0.9-0.7-2.1-0.7-3.6c0-1.1,0.3-2.2,1-3.1c0.7-0.9,1.5-1.5,2.5-1.9c1.1-0.4,2.3-0.7,3.5-0.6
			c4.6,0,6.9,2.3,6.9,6.8v0.5H371v-0.9c0-0.5-0.1-1-0.3-1.4c-0.1-0.4-0.5-0.6-0.9-0.6c-0.3,0-0.7,0.1-0.9,0.3
			c-0.2,0.3-0.3,0.6-0.3,0.9c0,0.8,0.3,1.6,1,2l3.5,2.6c1.1,0.8,2.1,1.8,2.9,3c0.7,1.3,1.1,2.7,1,4.1c0,2.2-0.6,3.9-1.9,5.1
			c-1.2,1.2-3,1.8-5.2,1.8C365.1,160,362.8,157.7,362.8,152.9"/>
	</g>
	<polygon class="st1" points="172.4,37 172.4,21.8 178.5,21.8 178.5,24.7 175.5,24.7 175.5,27.7 178.4,27.7 178.4,30.6 175.5,30.6 
		175.5,34 178.7,34 178.7,37 	"/>
	<polygon class="st1" points="183.4,37 183.4,21.8 186.5,21.8 187.9,29.1 187.9,21.8 190.9,21.8 190.9,37 187.9,37 186.4,29.4 
		186.4,37 	"/>
	<polygon class="st1" points="197.2,37 197.2,24.7 195.4,24.7 195.4,21.8 202,21.8 202,24.7 200.2,24.7 200.2,37 	"/>
	<rect x="206.5" y="21.8" class="st1" width="2.9" height="15.2"/>
	<g>
		<defs>
			<rect id="SVGID_00000146497022547306800030000003252809724393985410_" x="-32.1" y="-28.5" width="478.7" height="238.5"/>
		</defs>
		<clipPath id="SVGID_00000141445035022266721110000002552376151009322687_">
			<use xlink:href="#SVGID_00000146497022547306800030000003252809724393985410_"  style="overflow:visible;"/>
		</clipPath>
		<path style="clip-path:url(#SVGID_00000141445035022266721110000002552376151009322687_);fill:#FFFFFF;" d="M217.9,34.3
			c0.4,0.1,0.8-0.2,0.8-0.6c0-0.1,0-0.1,0-0.2v-7.8c0-0.3,0-0.5-0.1-0.8c0-0.2-0.1-0.3-0.3-0.3c-0.2-0.1-0.4-0.1-0.7-0.1h-0.3v9.8
			L217.9,34.3z M214.3,21.8h4.2c1.1,0,1.9,0.3,2.4,0.9c0.5,0.6,0.8,1.5,0.8,2.7l0,7.1c0,1.5-0.2,2.6-0.8,3.4
			c-0.5,0.8-1.4,1.1-2.6,1.1h-4.1V21.8z"/>
	</g>
	<path class="st1" d="M229.7,32.1h1.4l-0.7-7.7h-0.1L229.7,32.1z M226.3,37l1.5-15.2h5.1l1.4,15.2h-2.9l-0.2-2.5h-1.8l-0.2,2.5
		H226.3z"/>
	<g>
		<defs>
			<rect id="SVGID_00000119808614572366713730000016202834355035622846_" x="-32.1" y="-28.5" width="478.7" height="238.5"/>
		</defs>
		<clipPath id="SVGID_00000077321555057046450400000014235212615570205583_">
			<use xlink:href="#SVGID_00000119808614572366713730000016202834355035622846_"  style="overflow:visible;"/>
		</clipPath>
		<path style="clip-path:url(#SVGID_00000077321555057046450400000014235212615570205583_);fill:#FFFFFF;" d="M242.6,34.3
			c0.4,0.1,0.8-0.2,0.8-0.6c0-0.1,0-0.1,0-0.2v-7.8c0-0.3,0-0.5-0.1-0.8c0-0.2-0.1-0.3-0.3-0.3c-0.2-0.1-0.4-0.1-0.6-0.1H242v9.8
			L242.6,34.3z M239,21.8h4.2c1.1,0,1.9,0.3,2.4,0.9c0.5,0.6,0.8,1.5,0.8,2.7l0,7.1c0,1.5-0.2,2.6-0.8,3.4c-0.5,0.8-1.4,1.1-2.6,1.1
			H239V21.8z"/>
	</g>
	<path class="st1" d="M270,32.1h1.4l-0.7-7.7h-0.1L270,32.1z M266.6,37l1.5-15.2h5.1l1.4,15.2h-2.9l-0.2-2.5h-1.8l-0.2,2.5H266.6z"
		/>
	<g>
		<defs>
			<rect id="SVGID_00000077314516829651729790000013123552524215257474_" x="-32.1" y="-28.5" width="478.7" height="238.5"/>
		</defs>
		<clipPath id="SVGID_00000052794393176710060520000012142136815487896225_">
			<use xlink:href="#SVGID_00000077314516829651729790000013123552524215257474_"  style="overflow:visible;"/>
		</clipPath>
		<path style="clip-path:url(#SVGID_00000052794393176710060520000012142136815487896225_);fill:#FFFFFF;" d="M282.9,34.3
			c0.4,0.1,0.8-0.2,0.8-0.6c0-0.1,0-0.1,0-0.2v-7.8c0-0.3,0-0.5-0.1-0.8c0-0.2-0.1-0.3-0.3-0.3c-0.2-0.1-0.4-0.1-0.7-0.1h-0.3v9.8
			L282.9,34.3z M279.3,21.8h4.2c1.1,0,1.9,0.3,2.4,0.9c0.5,0.6,0.8,1.5,0.8,2.7l0,7.1c0,1.5-0.2,2.6-0.8,3.4
			c-0.5,0.8-1.4,1.1-2.6,1.1h-4.1V21.8z"/>
		<path style="clip-path:url(#SVGID_00000052794393176710060520000012142136815487896225_);fill:#FFFFFF;" d="M292.3,36.1
			c-0.6-0.7-0.9-1.8-0.9-3.3v-1.5h3v1.9c0,0.8,0.2,1.1,0.7,1.1c0.2,0,0.4-0.1,0.6-0.2c0.1-0.2,0.2-0.5,0.2-0.8c0-0.4,0-0.8-0.2-1.2
			c-0.1-0.3-0.3-0.6-0.5-0.8c-0.2-0.2-0.5-0.6-1-1l-1.3-1.3c-0.9-0.8-1.5-2-1.5-3.3c0-1.3,0.3-2.3,0.9-3c0.6-0.7,1.5-1,2.6-1
			c1.4,0,2.3,0.4,2.9,1.1c0.6,0.7,0.9,1.9,0.9,3.4h-3.1v-1c0-0.2-0.1-0.3-0.2-0.5c-0.1-0.1-0.3-0.2-0.5-0.2c-0.2,0-0.4,0.1-0.5,0.2
			c-0.1,0.1-0.2,0.3-0.2,0.5c0,0.5,0.3,1,0.8,1.5l1.8,1.7c0.4,0.4,0.7,0.7,1,1.1c0.3,0.4,0.5,0.8,0.6,1.3c0.2,0.6,0.3,1.1,0.2,1.7
			c0,1.5-0.3,2.6-0.8,3.4c-0.5,0.8-1.4,1.1-2.7,1.1C293.9,37.1,292.9,36.8,292.3,36.1"/>
		<path style="clip-path:url(#SVGID_00000052794393176710060520000012142136815487896225_);fill:#FFFFFF;" d="M304.4,36.1
			c-0.7-0.8-1.1-1.8-1-2.9v-7c0-1.5,0.3-2.6,0.9-3.4c0.6-0.8,1.5-1.1,2.8-1.1c1,0,1.9,0.3,2.7,0.9c0.7,0.6,1,1.5,1,2.6v2.6h-3v-2.3
			c0-0.3,0-0.6-0.2-0.9c-0.1-0.2-0.3-0.3-0.5-0.2c-0.2,0-0.4,0.1-0.6,0.3c-0.1,0.3-0.2,0.5-0.1,0.8v7.6c0,0.3,0,0.6,0.2,0.9
			c0.1,0.2,0.3,0.3,0.5,0.3c0.5,0,0.7-0.4,0.7-1.1v-2.7h3.1v2.9c0,2.5-1.3,3.8-3.8,3.8C306.1,37.2,305.1,36.8,304.4,36.1"/>
		<path style="clip-path:url(#SVGID_00000052794393176710060520000012142136815487896225_);fill:#FFFFFF;" d="M319.4,27.4
			c0.4,0,0.6-0.5,0.6-1.4c0-0.3,0-0.6,0-0.9c0-0.2-0.1-0.3-0.2-0.4c-0.1-0.1-0.3-0.1-0.4-0.1h-0.7v2.8H319.4z M315.6,21.8h4.7
			c0.6,0,1.2,0.1,1.7,0.5c0.4,0.4,0.7,0.9,0.8,1.4c0.2,0.8,0.2,1.5,0.2,2.3c0,0.7-0.1,1.4-0.3,2c-0.2,0.5-0.6,0.8-1.1,1
			c0.4,0.1,0.8,0.3,1,0.7c0.2,0.5,0.3,1,0.3,1.5l0,5.7h-3V31c0-0.4-0.1-0.7-0.2-0.8c-0.3-0.1-0.6-0.2-0.9-0.2V37h-3.1L315.6,21.8z"
			/>
	</g>
	<rect x="327.6" y="21.8" class="st1" width="2.9" height="15.2"/>
	<polygon class="st1" points="336.8,37 336.8,24.7 335,24.7 335,21.8 341.6,21.8 341.6,24.7 339.8,24.7 339.8,37 	"/>
	<path class="st1" d="M349.1,32.1h1.4l-0.7-7.7h-0.1L349.1,32.1z M345.7,37l1.5-15.2h5.1l1.4,15.2h-2.9l-0.2-2.5h-1.8l-0.2,2.5
		H345.7z"/>
</g>
</svg>
