<?xml version="1.0" encoding="UTF-8"?>
<svg id="Capa_1" data-name="Capa 1" xmlns="http://www.w3.org/2000/svg" viewBox="0 0 596.7 213.6">
  <defs>
    <style>
      .cls-1 {
        fill: #fff;
      }
    </style>
  </defs>
  <g>
    <path class="cls-1" d="M152.9,0v150.5H63.7V0H0v186.5c0,9.2,2.4,16.1,7,20.8,4.4,4.3,10.8,6.6,19.3,6.9h0c0,0,164,0,164,0h0c8.6-.3,15-2.6,19.4-6.9,4.6-4.6,6.9-11.6,6.9-20.8V0h-63.7Z"/>
    <path class="cls-1" d="M129.3,7c-4.7-4.6-11.7-7-21.1-7s-16.4,2.3-21,7c-4.6,4.6-7,11.6-7,20.8v106h56.1V27.7c0-9.2-2.3-16.1-7-20.8Z"/>
  </g>
  <g>
    <path class="cls-1" d="M288.4,29v26.3c0,3-.5,5.5-1.4,7.5-.9,2-2.3,3.5-4.1,4.5-1.8,1-4,1.5-6.7,1.5-3.9,0-6.9-1.1-9-3.3s-3.1-5.5-3.1-10v-26.5h7.5v26.2c0,2.5.4,4.3,1.2,5.3.8,1.1,1.9,1.6,3.4,1.6s1.9-.2,2.6-.7c.7-.5,1.2-1.2,1.6-2.2.3-1,.5-2.4.5-4.1v-26.2h7.5Z"/>
    <path class="cls-1" d="M322.4,68.3h-8.9l-11.5-27.4h-.2c.1,1.3.2,2.5.3,3.6,0,1.1.1,2.1.1,3.1,0,.9,0,1.8,0,2.5v18.2h-7V29h8.8l11.4,26.8h.2c0-1.2-.1-2.4-.2-3.5,0-1.1,0-2.1-.1-3s0-1.7,0-2.5v-17.9h7.1v39.2Z"/>
    <path class="cls-1" d="M329.4,68.3V29h7.5v39.2h-7.5Z"/>
    <path class="cls-1" d="M368.7,29l-9.8,39.2h-8.7l-9.7-39.2h7.9l4.7,22.1c.2.8.4,1.8.6,2.9s.4,2.2.5,3.3c.2,1.1.3,2,.4,2.8.1-.8.2-1.7.4-2.8.2-1.1.4-2.2.6-3.3.2-1.1.4-2.1.6-2.9l4.8-22.1h7.8Z"/>
    <path class="cls-1" d="M389.9,68.3h-17.6V29h17.6v6.4h-10.1v9.2h9.4v6.4h-9.4v10.6h10.1v6.6Z"/>
    <path class="cls-1" d="M404.8,29c2.9,0,5.3.4,7.2,1.3s3.3,2.1,4.3,3.8c.9,1.7,1.4,3.8,1.4,6.3s-.2,3.1-.6,4.4c-.4,1.3-1,2.5-1.8,3.5s-1.9,1.9-3.2,2.7l8.1,17.3h-8.3l-6.4-15.4h-2.3v15.4h-7.5V29h9.1ZM404.8,35.4h-1.5v11.5h1.7c1.7,0,3-.5,3.8-1.5.9-1,1.3-2.6,1.3-4.6s-.4-3.2-1.3-4.1-2.2-1.3-4-1.3Z"/>
    <path class="cls-1" d="M442.8,56.8c0,2.4-.5,4.4-1.4,6.3-1,1.8-2.3,3.2-4,4.2-1.7,1-3.8,1.5-6.1,1.5s-2.1,0-3.2-.2c-1-.1-2-.4-3-.7-1-.3-2-.7-3-1.2v-7.7c1.4.9,2.9,1.6,4.5,2.1,1.5.5,3,.7,4.3.7s1.8-.2,2.4-.6c.6-.4,1.1-.9,1.4-1.5.3-.6.5-1.4.5-2.2s-.1-1.6-.4-2.3c-.3-.7-.8-1.3-1.5-2-.8-.7-1.9-1.4-3.3-2.3-1.1-.7-2.2-1.4-3.1-2.1-.9-.7-1.7-1.5-2.4-2.4s-1.2-1.9-1.5-3c-.3-1.1-.5-2.5-.5-4.1,0-2.2.4-4.2,1.3-5.8.9-1.7,2.2-3,3.8-3.9,1.7-.9,3.7-1.4,6-1.4,1.6,0,3.2.2,4.7.6,1.5.4,3,1,4.4,1.8l-2.1,6.7c-1.3-.8-2.5-1.3-3.6-1.7-1.1-.4-2.2-.6-3.2-.6s-1.6.2-2.2.5-1,.8-1.3,1.4c-.3.6-.4,1.2-.4,2s.1,1.7.4,2.4.8,1.3,1.6,1.9c.8.6,1.9,1.4,3.5,2.2,1.6.9,3,2,4.1,3,1.1,1.1,1.9,2.3,2.5,3.6s.8,2.8.8,4.6Z"/>
    <path class="cls-1" d="M447.9,68.3V29h7.5v39.2h-7.5Z"/>
    <path class="cls-1" d="M487.4,47.9c0,4.4-.6,8.1-1.8,11.1-1.2,3-3,5.3-5.3,6.9-2.3,1.6-5.2,2.3-8.5,2.3h-9.2V29h9.8c3.2,0,6,.7,8.2,2.2,2.2,1.5,3.9,3.6,5.1,6.4,1.2,2.8,1.7,6.3,1.7,10.3ZM479.6,48.3c0-2.9-.3-5.3-.8-7.2-.6-1.9-1.4-3.3-2.5-4.2-1.1-.9-2.5-1.3-4.1-1.3h-2.1v26.1h1.6c2.7,0,4.7-1.1,6-3.3,1.3-2.2,1.9-5.6,1.9-10.1Z"/>
    <path class="cls-1" d="M510.6,68.3l-2-9.4h-8.7l-2,9.4h-8.1l9.5-39.2h9.7l9.7,39.2h-8ZM507.4,52.3l-2.1-10.4c-.1-.9-.3-1.7-.4-2.5-.1-.8-.3-1.6-.4-2.4-.1-.8-.2-1.5-.3-2.1,0,.6-.1,1.3-.2,2.1-.1.8-.2,1.5-.4,2.4-.1.8-.3,1.7-.5,2.5l-2.1,10.5h6.4Z"/>
    <path class="cls-1" d="M547,47.9c0,4.4-.6,8.1-1.8,11.1-1.2,3-3,5.3-5.3,6.9-2.3,1.6-5.2,2.3-8.5,2.3h-9.2V29h9.8c3.2,0,6,.7,8.2,2.2,2.2,1.5,3.9,3.6,5.1,6.4,1.2,2.8,1.7,6.3,1.7,10.3ZM539.2,48.3c0-2.9-.3-5.3-.8-7.2-.6-1.9-1.4-3.3-2.5-4.2-1.1-.9-2.5-1.3-4.1-1.3h-2.1v26.1h1.6c2.7,0,4.7-1.1,6-3.3,1.3-2.2,1.9-5.6,1.9-10.1Z"/>
    <path class="cls-1" d="M570.5,68.3h-17.6V29h17.6v6.4h-10.1v9.2h9.4v6.4h-9.4v10.6h10.1v6.6Z"/>
    <path class="cls-1" d="M595.3,56.8c0,2.4-.5,4.4-1.4,6.3-1,1.8-2.3,3.2-4,4.2-1.7,1-3.8,1.5-6.1,1.5s-2.1,0-3.2-.2c-1-.1-2-.4-3-.7-1-.3-2-.7-3-1.2v-7.7c1.4.9,2.9,1.6,4.5,2.1,1.5.5,3,.7,4.3.7s1.8-.2,2.4-.6c.6-.4,1.1-.9,1.4-1.5.3-.6.5-1.4.5-2.2s-.1-1.6-.4-2.3c-.3-.7-.8-1.3-1.5-2-.8-.7-1.9-1.4-3.3-2.3-1.1-.7-2.2-1.4-3.1-2.1-.9-.7-1.7-1.5-2.4-2.4s-1.2-1.9-1.5-3c-.3-1.1-.5-2.5-.5-4.1,0-2.2.4-4.2,1.3-5.8.9-1.7,2.2-3,3.8-3.9,1.7-.9,3.7-1.4,6-1.4,1.6,0,3.2.2,4.7.6,1.5.4,3,1,4.4,1.8l-2.1,6.7c-1.3-.8-2.5-1.3-3.6-1.7-1.1-.4-2.2-.6-3.2-.6s-1.6.2-2.2.5-1,.8-1.3,1.4c-.3.6-.4,1.2-.4,2s.1,1.7.4,2.4.8,1.3,1.6,1.9c.8.6,1.9,1.4,3.5,2.2,1.6.9,3,2,4.1,3,1.1,1.1,1.9,2.3,2.5,3.6s.8,2.8.8,4.6Z"/>
    <path class="cls-1" d="M274.3,87.3c4,0,7,1,8.9,3.1,1.9,2.1,2.9,5.1,2.9,9s-.2,3.8-.7,5.4c-.5,1.6-1.2,3-2.2,4.2s-2.3,2.1-3.8,2.7c-1.5.6-3.3.9-5.4.9h-2.1v13.9h-7.5v-39.2h10ZM273.7,93.7h-1.9v12.5h1.3c1.2,0,2.2-.2,3-.7.8-.4,1.4-1.2,1.8-2.1.4-1,.6-2.3.6-3.9s-.4-3.5-1.2-4.4c-.8-.9-2-1.4-3.7-1.4Z"/>
    <path class="cls-1" d="M315.4,87.3v26.3c0,3-.5,5.5-1.4,7.5-.9,2-2.3,3.5-4.1,4.5-1.8,1-4,1.5-6.7,1.5-3.9,0-6.9-1.1-9-3.3s-3.1-5.5-3.1-10v-26.5h7.5v26.2c0,2.5.4,4.3,1.2,5.3.8,1.1,1.9,1.6,3.4,1.6s1.9-.2,2.6-.7c.7-.5,1.2-1.2,1.6-2.2.3-1,.5-2.4.5-4.1v-26.2h7.5ZM312.6,75.5v.5c-.4.5-.9,1.1-1.5,1.8-.6.7-1.2,1.4-1.9,2.2-.7.8-1.4,1.5-2.1,2.3s-1.4,1.4-2.1,2h-5.1v-.7c.6-1,1.2-1.9,1.8-2.8.5-.9,1-1.8,1.5-2.7.5-.9.9-1.7,1.2-2.6h8.2Z"/>
    <path class="cls-1" d="M322.2,87.3h10.3c4,0,7.1.8,9.1,2.4,2,1.6,3,4,3,7.3s-.2,2.9-.6,4.1-1,2.2-1.8,3c-.8.8-1.7,1.3-2.8,1.6v.3c1.4.4,2.5,1,3.4,1.8.9.8,1.5,1.8,1.9,3.1s.6,2.7.6,4.4-.5,4.3-1.4,6c-.9,1.7-2.3,3-4,3.9s-3.8,1.4-6.2,1.4h-11.5v-39.2ZM329.7,103.2h2.8c1.5,0,2.7-.4,3.4-1.3.7-.9,1.1-2.2,1.1-3.9s-.4-2.6-1.2-3.4-1.9-1.2-3.5-1.2h-2.7v9.7ZM329.7,109.2v11h3.4c1.5,0,2.6-.5,3.4-1.4.8-.9,1.1-2.3,1.1-4.2s-.2-2.1-.6-2.9c-.4-.8-.9-1.4-1.6-1.8s-1.6-.6-2.6-.6h-3.1Z"/>
    <path class="cls-1" d="M351.2,126.6v-39.2h7.5v32.7h10.4v6.6h-18Z"/>
    <path class="cls-1" d="M373.5,126.6v-39.2h7.5v39.2h-7.5Z"/>
    <path class="cls-1" d="M401.5,93.3c-1.1,0-2.1.3-3,1-.9.7-1.6,1.6-2.1,2.9-.6,1.2-1,2.7-1.3,4.4-.3,1.7-.4,3.5-.4,5.5,0,2.9.3,5.4.8,7.4s1.4,3.5,2.4,4.6c1.1,1,2.4,1.6,3.9,1.6s2.4-.2,3.5-.6,2.2-.9,3.2-1.5v6.7c-1.1.6-2.3,1.1-3.6,1.4s-2.7.5-4.2.5c-3,0-5.5-.8-7.5-2.3-2.1-1.6-3.6-3.8-4.7-6.8s-1.6-6.6-1.6-10.9.3-5.6.9-8.1,1.5-4.6,2.7-6.4c1.2-1.8,2.7-3.2,4.4-4.2s3.7-1.5,6-1.5,3.1.2,4.6.6c1.5.4,2.9,1,4.2,1.8l-2.1,6.2c-1-.7-1.9-1.2-2.9-1.6-1-.4-2-.6-3.2-.6Z"/>
    <path class="cls-1" d="M432,126.6l-2-9.4h-8.7l-2,9.4h-8.1l9.5-39.2h9.7l9.7,39.2h-8ZM428.8,110.6l-2.1-10.4c-.1-.9-.3-1.7-.4-2.5-.1-.8-.3-1.6-.4-2.4-.1-.8-.2-1.5-.3-2.1,0,.6-.1,1.3-.2,2.1-.1.8-.2,1.5-.4,2.4-.1.8-.3,1.7-.5,2.5l-2.1,10.5h6.4Z"/>
    <path class="cls-1" d="M462.4,115.1c0,2.4-.5,4.4-1.4,6.3-1,1.8-2.3,3.2-4,4.2-1.7,1-3.8,1.5-6.1,1.5s-2.1,0-3.2-.2c-1-.1-2-.4-3-.7-1-.3-2-.7-3-1.2v-7.7c1.4.9,2.9,1.6,4.5,2.1,1.5.5,3,.7,4.3.7s1.8-.2,2.4-.6c.6-.4,1.1-.9,1.4-1.5.3-.6.5-1.4.5-2.2s-.1-1.6-.4-2.3c-.3-.7-.8-1.3-1.5-2-.8-.7-1.9-1.4-3.3-2.3-1.1-.7-2.2-1.4-3.1-2.1-.9-.7-1.7-1.5-2.4-2.4s-1.2-1.9-1.5-3c-.3-1.1-.5-2.5-.5-4.1,0-2.2.4-4.2,1.3-5.8.9-1.7,2.2-3,3.8-3.9,1.7-.9,3.7-1.4,6-1.4,1.6,0,3.2.2,4.7.6,1.5.4,3,1,4.4,1.8l-2.1,6.7c-1.3-.8-2.5-1.3-3.6-1.7-1.1-.4-2.2-.6-3.2-.6s-1.6.2-2.2.5-1,.8-1.3,1.4c-.3.6-.4,1.2-.4,2s.1,1.7.4,2.4.8,1.3,1.6,1.9c.8.6,1.9,1.4,3.5,2.2,1.6.9,3,2,4.1,3,1.1,1.1,1.9,2.3,2.5,3.6s.8,2.8.8,4.6Z"/>
    <path class="cls-1" d="M502.3,106.2c0,4.4-.6,8.1-1.8,11.1-1.2,3-3,5.3-5.3,6.9-2.3,1.6-5.2,2.3-8.5,2.3h-9.2v-39.2h9.8c3.2,0,6,.7,8.2,2.2,2.2,1.5,3.9,3.6,5.1,6.4,1.2,2.8,1.7,6.3,1.7,10.3ZM494.5,106.6c0-2.9-.3-5.3-.8-7.2-.6-1.9-1.4-3.3-2.5-4.2-1.1-.9-2.5-1.3-4.1-1.3h-2.1v26.1h1.6c2.7,0,4.7-1.1,6-3.3,1.3-2.2,1.9-5.6,1.9-10.1Z"/>
    <path class="cls-1" d="M525.8,126.6h-17.6v-39.2h17.6v6.4h-10.1v9.2h9.4v6.4h-9.4v10.6h10.1v6.6Z"/>
    <path class="cls-1" d="M281.7,184.9l-2-9.5h-8.7l-2,9.5h-8.1l9.5-39.2h9.7l9.7,39.2h-8ZM278.5,168.9l-2.1-10.4c-.1-.9-.3-1.7-.4-2.5-.1-.8-.3-1.6-.4-2.4-.1-.8-.2-1.5-.3-2.1,0,.6-.1,1.3-.2,2.1-.1.8-.2,1.5-.4,2.4-.1.8-.3,1.7-.5,2.5l-2.1,10.5h6.4Z"/>
    <path class="cls-1" d="M320.4,184.9h-8.9l-11.5-27.4h-.2c.1,1.3.2,2.5.3,3.6,0,1.1.1,2.1.1,3.1,0,.9,0,1.8,0,2.5v18.2h-7v-39.2h8.8l11.4,26.8h.2c0-1.2-.1-2.4-.2-3.5,0-1.1,0-2.1-.1-3s0-1.7,0-2.5v-17.9h7.1v39.2Z"/>
    <path class="cls-1" d="M352.3,164.5c0,4.4-.6,8.1-1.8,11.1-1.2,3-3,5.3-5.3,6.9-2.3,1.6-5.2,2.3-8.5,2.3h-9.2v-39.2h9.8c3.2,0,6,.7,8.2,2.2,2.2,1.5,3.9,3.6,5.1,6.4,1.2,2.8,1.7,6.3,1.7,10.3ZM344.5,164.9c0-2.9-.3-5.3-.8-7.2-.6-1.9-1.4-3.3-2.5-4.2-1.1-.9-2.5-1.3-4.1-1.3h-2.1v26.1h1.6c2.7,0,4.7-1.1,6-3.3,1.3-2.2,1.9-5.6,1.9-10.1Z"/>
    <path class="cls-1" d="M375.6,184.9l-2-9.5h-8.7l-2,9.5h-8.1l9.5-39.2h9.7l9.7,39.2h-8ZM372.4,168.9l-2.1-10.4c-.1-.9-.3-1.7-.4-2.5-.1-.8-.3-1.6-.4-2.4-.1-.8-.2-1.5-.3-2.1,0,.6-.1,1.3-.2,2.1-.1.8-.2,1.5-.4,2.4-.1.8-.3,1.7-.5,2.5l-2.1,10.5h6.4Z"/>
    <path class="cls-1" d="M387.1,184.9v-39.2h7.5v32.7h10.4v6.6h-18Z"/>
    <path class="cls-1" d="M433.5,145.6v26.3c0,3-.5,5.5-1.4,7.5-.9,2-2.3,3.5-4.1,4.5-1.8,1-4,1.5-6.7,1.5-3.9,0-6.9-1.1-9-3.3s-3.1-5.5-3.1-10v-26.5h7.5v26.2c0,2.5.4,4.3,1.2,5.3.8,1.1,1.9,1.6,3.4,1.6s1.9-.2,2.6-.7,1.2-1.2,1.6-2.2c.3-1,.5-2.4.5-4.1v-26.2h7.5Z"/>
    <path class="cls-1" d="M453.8,151.6c-1.1,0-2.1.3-3,1s-1.6,1.6-2.1,2.9c-.6,1.2-1,2.7-1.3,4.4-.3,1.7-.4,3.5-.4,5.5,0,2.9.3,5.4.8,7.4.6,2,1.4,3.5,2.4,4.6,1.1,1,2.4,1.6,3.9,1.6s2.4-.2,3.5-.6c1.1-.4,2.2-.9,3.2-1.5v6.7c-1.1.6-2.3,1.1-3.6,1.4s-2.7.5-4.2.5c-3,0-5.5-.8-7.5-2.3-2.1-1.6-3.6-3.8-4.7-6.8s-1.6-6.6-1.6-10.9.3-5.6.9-8.1c.6-2.5,1.5-4.6,2.7-6.4s2.7-3.2,4.4-4.2,3.7-1.5,6-1.5,3.1.2,4.6.6c1.5.4,2.9,1,4.2,1.8l-2.1,6.2c-1-.7-1.9-1.2-2.9-1.6-1-.4-2-.6-3.2-.6Z"/>
    <path class="cls-1" d="M466.9,184.9v-39.2h7.5v39.2h-7.5ZM479.7,133.6v.5c-.4.5-.9,1.1-1.5,1.8s-1.2,1.4-1.9,2.2-1.4,1.5-2.1,2.3c-.7.7-1.4,1.4-2.1,2h-5.1v-.7c.6-1,1.2-1.9,1.8-2.8.5-.9,1-1.8,1.5-2.7s.9-1.7,1.2-2.6h8.2Z"/>
    <path class="cls-1" d="M498.8,184.9l-2-9.5h-8.7l-2,9.5h-8.1l9.5-39.2h9.7l9.7,39.2h-8ZM495.6,168.9l-2.1-10.4c-.1-.9-.3-1.7-.4-2.5-.1-.8-.3-1.6-.4-2.4-.1-.8-.2-1.5-.3-2.1,0,.6-.1,1.3-.2,2.1-.1.8-.2,1.5-.4,2.4-.1.8-.3,1.7-.5,2.5l-2.1,10.5h6.4Z"/>
  </g>
</svg>